G04 #@! TF.FileFunction,Copper,L1,Top,Signal*
%FSLAX46Y46*%
G04 Gerber Fmt 4.6, Leading zero omitted, Abs format (unit mm)*
G04 Created by KiCad (PCBNEW 4.0.1-stable) date Sonntag, 31. Januar 2016 12:56:46*
%MOMM*%
G01*
G04 APERTURE LIST*
%ADD10C,0.100000*%
%ADD11C,0.150000*%
%ADD12R,1.727200X1.727200*%
%ADD13O,1.727200X1.727200*%
%ADD14C,1.998980*%
%ADD15R,1.998980X1.998980*%
%ADD16C,1.422400*%
%ADD17C,4.064000*%
%ADD18O,1.600000X1.600000*%
%ADD19O,2.499360X1.501140*%
%ADD20R,2.032000X1.727200*%
%ADD21O,2.032000X1.727200*%
%ADD22C,4.800600*%
%ADD23R,4.800600X4.800600*%
%ADD24C,3.810000*%
%ADD25R,1.524000X1.524000*%
%ADD26C,1.524000*%
%ADD27R,2.000000X2.000000*%
%ADD28C,2.000000*%
%ADD29R,1.300000X1.300000*%
%ADD30C,1.300000*%
%ADD31C,0.600000*%
%ADD32C,0.250000*%
%ADD33C,1.000000*%
%ADD34C,0.500000*%
G04 APERTURE END LIST*
D10*
D11*
X80000000Y92000000D02*
X80000000Y80000000D01*
X0Y92000000D02*
X80000000Y92000000D01*
X0Y74000000D02*
X0Y92000000D01*
X0Y74000000D02*
X0Y70000000D01*
X0Y0D02*
X0Y70000000D01*
X17000000Y0D02*
X0Y0D01*
X18000000Y0D02*
X17000000Y0D01*
X80000000Y0D02*
X18000000Y0D01*
X80000000Y80000000D02*
X80000000Y0D01*
D12*
X25565000Y41710000D03*
D13*
X25565000Y44250000D03*
X28105000Y41710000D03*
X28105000Y44250000D03*
X30645000Y41710000D03*
X30645000Y44250000D03*
D14*
X20485000Y42982540D03*
D15*
X10325000Y42982540D03*
D16*
X36360000Y37900000D03*
X36360000Y32820000D03*
D17*
X4000000Y4000000D03*
X4000000Y83000000D03*
X76000000Y83000000D03*
X76000000Y4000000D03*
X4000000Y69000000D03*
X76000000Y70000000D03*
D14*
X10960000Y63259360D03*
X10960000Y60760000D03*
X30604360Y31550000D03*
X28105000Y31550000D03*
X30604360Y11230000D03*
X28105000Y11230000D03*
X34495640Y11865000D03*
X36995000Y11865000D03*
D18*
X6515000Y9960000D03*
X9055000Y9960000D03*
X11595000Y9960000D03*
X14135000Y9960000D03*
X16675000Y9960000D03*
X19215000Y9960000D03*
X21755000Y9960000D03*
X24295000Y9960000D03*
X24295000Y17580000D03*
X21755000Y17580000D03*
X19215000Y17580000D03*
X16675000Y17580000D03*
X14135000Y17580000D03*
X11595000Y17580000D03*
X9055000Y17580000D03*
X6515000Y17580000D03*
D19*
X5245000Y28375000D03*
X5245000Y30915000D03*
X5245000Y25835000D03*
D18*
X44615000Y10595000D03*
X44615000Y8055000D03*
X44615000Y5515000D03*
X44615000Y2975000D03*
X52235000Y2975000D03*
X52235000Y5515000D03*
X52235000Y8055000D03*
X52235000Y10595000D03*
X31915000Y1705000D03*
X34455000Y1705000D03*
X36995000Y1705000D03*
X39535000Y1705000D03*
X39535000Y9325000D03*
X36995000Y9325000D03*
X34455000Y9325000D03*
X31915000Y9325000D03*
D14*
X38265000Y15675000D03*
X28105000Y15675000D03*
X38265000Y18215000D03*
X28105000Y18215000D03*
X38265000Y23295000D03*
X28105000Y23295000D03*
X38265000Y25835000D03*
X28105000Y25835000D03*
X38265000Y20755000D03*
X28105000Y20755000D03*
X38265000Y28375000D03*
X28105000Y28375000D03*
X59220000Y37900000D03*
X69380000Y37900000D03*
X59220000Y35360000D03*
X69380000Y35360000D03*
X59220000Y32820000D03*
X69380000Y32820000D03*
X59220000Y30280000D03*
X69380000Y30280000D03*
X59220000Y27740000D03*
X69380000Y27740000D03*
X59220000Y25200000D03*
X69380000Y25200000D03*
X59220000Y22660000D03*
X69380000Y22660000D03*
X59220000Y20120000D03*
X69380000Y20120000D03*
X36360000Y50600000D03*
X26200000Y50600000D03*
X36360000Y53140000D03*
X26200000Y53140000D03*
X36360000Y55680000D03*
X26200000Y55680000D03*
X36360000Y58220000D03*
X26200000Y58220000D03*
X36360000Y60760000D03*
X26200000Y60760000D03*
X36360000Y63300000D03*
X26200000Y63300000D03*
X36360000Y65840000D03*
X26200000Y65840000D03*
X36360000Y68380000D03*
X26200000Y68380000D03*
X59220000Y48060000D03*
X69380000Y48060000D03*
X59220000Y50600000D03*
X69380000Y50600000D03*
X59220000Y53140000D03*
X69380000Y53140000D03*
X59220000Y55680000D03*
X69380000Y55680000D03*
X59220000Y58220000D03*
X69380000Y58220000D03*
X59220000Y60760000D03*
X69380000Y60760000D03*
X59220000Y63300000D03*
X69380000Y63300000D03*
X59220000Y65840000D03*
X69380000Y65840000D03*
X61125000Y44885000D03*
X71285000Y44885000D03*
X61125000Y41075000D03*
X71285000Y41075000D03*
X36360000Y48060000D03*
X26200000Y48060000D03*
X71920000Y6785000D03*
X71920000Y16945000D03*
X75095000Y9960000D03*
X75095000Y20120000D03*
X59220000Y4880000D03*
X59220000Y15040000D03*
X55410000Y12500000D03*
X55410000Y2340000D03*
D20*
X6515000Y40440000D03*
D21*
X6515000Y42980000D03*
X6515000Y45520000D03*
D22*
X7785000Y53775000D03*
D23*
X13881000Y53775000D03*
D22*
X10071000Y48695000D03*
D12*
X19215000Y31550000D03*
D13*
X21755000Y31550000D03*
X19215000Y29010000D03*
X21755000Y29010000D03*
X19215000Y26470000D03*
X21755000Y26470000D03*
X19215000Y23930000D03*
X21755000Y23930000D03*
X19215000Y21390000D03*
X21755000Y21390000D03*
D12*
X77000000Y24565000D03*
D13*
X74460000Y24565000D03*
X77000000Y27105000D03*
X74460000Y27105000D03*
X77000000Y29645000D03*
X74460000Y29645000D03*
X77000000Y32185000D03*
X74460000Y32185000D03*
X77000000Y34725000D03*
X74460000Y34725000D03*
D12*
X19215000Y68380000D03*
D13*
X21755000Y68380000D03*
X19215000Y65840000D03*
X21755000Y65840000D03*
X19215000Y63300000D03*
X21755000Y63300000D03*
X19215000Y60760000D03*
X21755000Y60760000D03*
X19215000Y58220000D03*
X21755000Y58220000D03*
D12*
X74460000Y63300000D03*
D13*
X77000000Y63300000D03*
X74460000Y60760000D03*
X77000000Y60760000D03*
X74460000Y58220000D03*
X77000000Y58220000D03*
X74460000Y55680000D03*
X77000000Y55680000D03*
X74460000Y53140000D03*
X77000000Y53140000D03*
D12*
X77000000Y41710000D03*
D13*
X74460000Y41710000D03*
X77000000Y44250000D03*
X74460000Y44250000D03*
X77000000Y46790000D03*
X74460000Y46790000D03*
D12*
X14770000Y4245000D03*
D13*
X14770000Y6785000D03*
X17310000Y4245000D03*
X17310000Y6785000D03*
X19850000Y4245000D03*
X19850000Y6785000D03*
X22390000Y4245000D03*
X22390000Y6785000D03*
X24930000Y4245000D03*
X24930000Y6785000D03*
D12*
X49060000Y77270000D03*
D13*
X49060000Y79810000D03*
X51600000Y77270000D03*
X51600000Y79810000D03*
X54140000Y77270000D03*
X54140000Y79810000D03*
X56680000Y77270000D03*
X56680000Y79810000D03*
X59220000Y77270000D03*
X59220000Y79810000D03*
D18*
X41440000Y65840000D03*
X41440000Y63300000D03*
X41440000Y60760000D03*
X41440000Y58220000D03*
X41440000Y55680000D03*
X41440000Y53140000D03*
X41440000Y50600000D03*
X41440000Y48060000D03*
X41440000Y45520000D03*
X41440000Y42980000D03*
X41440000Y40440000D03*
X41440000Y37900000D03*
X41440000Y35360000D03*
X41440000Y32820000D03*
X41440000Y30280000D03*
X41440000Y27740000D03*
X41440000Y25200000D03*
X41440000Y22660000D03*
X41440000Y20120000D03*
X41440000Y17580000D03*
X56680000Y17580000D03*
X56680000Y20120000D03*
X56680000Y22660000D03*
X56680000Y25200000D03*
X56680000Y27740000D03*
X56680000Y30280000D03*
X56680000Y32820000D03*
X56680000Y35360000D03*
X56680000Y37900000D03*
X56680000Y40440000D03*
X56680000Y42980000D03*
X56680000Y45520000D03*
X56680000Y48060000D03*
X56680000Y50600000D03*
X56680000Y53140000D03*
X56680000Y55680000D03*
X56680000Y58220000D03*
X56680000Y60760000D03*
X56680000Y63300000D03*
X56680000Y65840000D03*
D12*
X63030000Y6150000D03*
D13*
X63030000Y8690000D03*
X65570000Y6150000D03*
X65570000Y8690000D03*
X68110000Y6150000D03*
X68110000Y8690000D03*
D12*
X63030000Y12500000D03*
D13*
X63030000Y15040000D03*
X65570000Y12500000D03*
X65570000Y15040000D03*
X68110000Y12500000D03*
X68110000Y15040000D03*
D24*
X15659000Y79302000D03*
X40678000Y79302000D03*
D25*
X33566000Y80699000D03*
D26*
X30899000Y80699000D03*
X28105000Y80699000D03*
X25438000Y80699000D03*
X22644000Y80699000D03*
X32296000Y77905000D03*
X29502000Y77905000D03*
X26835000Y77905000D03*
X24041000Y77905000D03*
D27*
X14135000Y63935000D03*
D28*
X14135000Y61395000D03*
D29*
X33820000Y42980000D03*
D30*
X38820000Y42980000D03*
D29*
X31280000Y35360000D03*
D30*
X26280000Y35360000D03*
D29*
X31280000Y37900000D03*
D30*
X26280000Y37900000D03*
D29*
X10325000Y25200000D03*
D30*
X12825000Y25200000D03*
D29*
X16040000Y26470000D03*
D30*
X16040000Y21470000D03*
D29*
X10325000Y20120000D03*
D30*
X5325000Y20120000D03*
D29*
X15405000Y29645000D03*
D30*
X10405000Y29645000D03*
X14730000Y36630000D03*
D29*
X12230000Y36630000D03*
D24*
X44234000Y86922000D03*
X69253000Y86922000D03*
D25*
X62141000Y88319000D03*
D26*
X59474000Y88319000D03*
X56680000Y88319000D03*
X54013000Y88319000D03*
X51219000Y88319000D03*
X60871000Y85525000D03*
X58077000Y85525000D03*
X55410000Y85525000D03*
X52616000Y85525000D03*
D24*
X11214000Y86922000D03*
X36233000Y86922000D03*
D25*
X29121000Y88319000D03*
D26*
X26454000Y88319000D03*
X23660000Y88319000D03*
X20993000Y88319000D03*
X18199000Y88319000D03*
X27851000Y85525000D03*
X25057000Y85525000D03*
X22390000Y85525000D03*
X19596000Y85525000D03*
D31*
X29375000Y76000000D03*
X45250000Y82350000D03*
X61760000Y78540000D03*
X65570000Y82350000D03*
X48425000Y10595000D03*
X14135000Y13135000D03*
X66205000Y16945000D03*
X44615000Y29010000D03*
X44615000Y26470000D03*
X50965000Y18850000D03*
X49060000Y18850000D03*
X45885000Y18850000D03*
X74460000Y39805000D03*
X63665000Y18850000D03*
X41440000Y13135000D03*
X43345000Y12500000D03*
X49060000Y17580000D03*
X50965000Y17580000D03*
X23660000Y25200000D03*
X23660000Y22660000D03*
X25565000Y15675000D03*
D32*
X33566000Y80699000D02*
X33566000Y87049000D01*
X32296000Y88319000D02*
X29121000Y88319000D01*
X33566000Y87049000D02*
X32296000Y88319000D01*
X26454000Y88319000D02*
X26454000Y84001000D01*
X30899000Y83366000D02*
X30899000Y80699000D01*
X30645000Y83620000D02*
X30899000Y83366000D01*
X26835000Y83620000D02*
X30645000Y83620000D01*
X26454000Y84001000D02*
X26835000Y83620000D01*
X26835000Y77905000D02*
X26835000Y76635000D01*
X51600000Y76000000D02*
X51600000Y77270000D01*
X50965000Y75365000D02*
X51600000Y76000000D01*
X28105000Y75365000D02*
X50965000Y75365000D01*
X26835000Y76635000D02*
X28105000Y75365000D01*
X26835000Y77905000D02*
X26835000Y77270000D01*
X26835000Y77270000D02*
X25565000Y76000000D01*
X25565000Y76000000D02*
X19850000Y76000000D01*
X19850000Y76000000D02*
X18580000Y77270000D01*
X18580000Y77270000D02*
X18580000Y78540000D01*
X18580000Y78540000D02*
X18580000Y80445000D01*
X18580000Y80445000D02*
X15405000Y83620000D01*
X15405000Y83620000D02*
X14770000Y84255000D01*
X14770000Y84255000D02*
X14770000Y89335000D01*
X14770000Y89335000D02*
X15405000Y89970000D01*
X15405000Y89970000D02*
X20485000Y89970000D01*
X20485000Y89970000D02*
X20993000Y89462000D01*
X20993000Y89462000D02*
X20993000Y88319000D01*
X26835000Y77905000D02*
X26835000Y77270000D01*
X51600000Y81080000D02*
X51600000Y79810000D01*
X50330000Y82350000D02*
X51600000Y81080000D01*
X47155000Y82350000D02*
X50330000Y82350000D01*
X45885000Y81080000D02*
X47155000Y82350000D01*
X45885000Y76635000D02*
X45885000Y81080000D01*
X45250000Y76000000D02*
X45885000Y76635000D01*
X43980000Y76000000D02*
X45250000Y76000000D01*
X29375000Y76000000D02*
X43980000Y76000000D01*
X24041000Y77905000D02*
X20485000Y77905000D01*
X16294000Y88319000D02*
X18199000Y88319000D01*
X16040000Y88065000D02*
X16294000Y88319000D01*
X16040000Y84255000D02*
X16040000Y88065000D01*
X19215000Y81080000D02*
X16040000Y84255000D01*
X19215000Y79175000D02*
X19215000Y81080000D01*
X19850000Y78540000D02*
X19215000Y79175000D01*
X20485000Y77905000D02*
X19850000Y78540000D01*
D33*
X6515000Y45520000D02*
X17947540Y45520000D01*
X17947540Y45520000D02*
X20485000Y42982540D01*
X7785000Y53775000D02*
X5880000Y51870000D01*
X5880000Y51870000D02*
X5880000Y46155000D01*
X5880000Y46155000D02*
X6515000Y45520000D01*
D32*
X32296000Y77905000D02*
X36360000Y77905000D01*
X38900000Y82350000D02*
X45250000Y82350000D01*
X37630000Y81080000D02*
X38900000Y82350000D01*
X37630000Y79175000D02*
X37630000Y81080000D01*
X36360000Y77905000D02*
X37630000Y79175000D01*
X62141000Y88319000D02*
X63030000Y87430000D01*
X56680000Y81080000D02*
X56680000Y79810000D01*
X57315000Y81715000D02*
X56680000Y81080000D01*
X62395000Y81715000D02*
X57315000Y81715000D01*
X63030000Y82350000D02*
X62395000Y81715000D01*
X63030000Y87430000D02*
X63030000Y82350000D01*
X56680000Y76000000D02*
X56680000Y77270000D01*
X57315000Y75365000D02*
X56680000Y76000000D01*
X61125000Y75365000D02*
X57315000Y75365000D01*
X61760000Y76000000D02*
X61125000Y75365000D01*
X61760000Y78540000D02*
X61760000Y76000000D01*
X54013000Y88319000D02*
X54013000Y89208000D01*
X65570000Y88700000D02*
X65570000Y82350000D01*
X64300000Y89970000D02*
X65570000Y88700000D01*
X54775000Y89970000D02*
X64300000Y89970000D01*
X54013000Y89208000D02*
X54775000Y89970000D01*
X51219000Y88319000D02*
X51219000Y88954000D01*
X51219000Y88954000D02*
X52870000Y90605000D01*
X52870000Y90605000D02*
X64935000Y90605000D01*
X64935000Y90605000D02*
X66205000Y89335000D01*
X66205000Y89335000D02*
X66205000Y80445000D01*
X66205000Y80445000D02*
X65570000Y79810000D01*
X65570000Y79810000D02*
X59220000Y79810000D01*
X10960000Y63259360D02*
X10960000Y63300000D01*
X10960000Y63300000D02*
X9690000Y64570000D01*
D34*
X77000000Y24565000D02*
X77000000Y11865000D01*
X77000000Y11865000D02*
X75095000Y9960000D01*
X71920000Y6785000D02*
X75095000Y9960000D01*
X59220000Y4880000D02*
X60490000Y3610000D01*
X68745000Y3610000D02*
X71920000Y6785000D01*
X60490000Y3610000D02*
X68745000Y3610000D01*
D33*
X19215000Y68380000D02*
X13500000Y68380000D01*
X3975000Y58855000D02*
X3975000Y57585000D01*
X13500000Y68380000D02*
X9690000Y64570000D01*
X9690000Y64570000D02*
X3975000Y58855000D01*
X75095000Y65205000D02*
X71285000Y69015000D01*
X21755000Y70920000D02*
X19215000Y68380000D01*
X38265000Y70920000D02*
X21755000Y70920000D01*
X40170000Y69015000D02*
X38265000Y70920000D01*
X71285000Y69015000D02*
X40170000Y69015000D01*
D32*
X3975000Y57585000D02*
X16675000Y57585000D01*
X16675000Y57585000D02*
X17945000Y56315000D01*
X17945000Y56315000D02*
X26200000Y48060000D01*
X26200000Y48060000D02*
X25565000Y47425000D01*
X25565000Y47425000D02*
X25565000Y44250000D01*
D33*
X61125000Y44885000D02*
X57315000Y44885000D01*
X57315000Y44885000D02*
X56680000Y45520000D01*
D34*
X56680000Y40440000D02*
X52870000Y40440000D01*
X52870000Y40440000D02*
X50330000Y42980000D01*
D32*
X61125000Y44885000D02*
X61125000Y41075000D01*
X33185000Y8055000D02*
X31915000Y9325000D01*
X41440000Y8055000D02*
X33185000Y8055000D01*
X42710000Y9325000D02*
X41440000Y8055000D01*
X47155000Y9325000D02*
X42710000Y9325000D01*
X48425000Y10595000D02*
X47155000Y9325000D01*
D34*
X52235000Y10595000D02*
X55410000Y10595000D01*
X59220000Y4880000D02*
X58585000Y4880000D01*
X58585000Y4880000D02*
X55410000Y8055000D01*
X55410000Y8055000D02*
X55410000Y10595000D01*
X55410000Y10595000D02*
X55410000Y12500000D01*
D33*
X77000000Y24565000D02*
X77635000Y24565000D01*
X77635000Y24565000D02*
X78905000Y25835000D01*
X78905000Y25835000D02*
X78905000Y51870000D01*
X41440000Y42980000D02*
X50330000Y42980000D01*
X52870000Y45520000D02*
X56680000Y45520000D01*
X50330000Y42980000D02*
X52870000Y45520000D01*
X74460000Y63300000D02*
X74460000Y64570000D01*
X74460000Y64570000D02*
X75095000Y65205000D01*
X75095000Y65205000D02*
X78270000Y65205000D01*
X78270000Y65205000D02*
X78905000Y64570000D01*
X78905000Y64570000D02*
X78905000Y51870000D01*
X78905000Y51870000D02*
X77000000Y49965000D01*
X68745000Y44885000D02*
X57315000Y44885000D01*
X73825000Y49965000D02*
X68745000Y44885000D01*
X77000000Y49965000D02*
X73825000Y49965000D01*
X57315000Y44885000D02*
X56680000Y45520000D01*
X3975000Y42980000D02*
X3975000Y57585000D01*
X5245000Y25835000D02*
X4610000Y25835000D01*
X4610000Y25835000D02*
X2070000Y28375000D01*
X3975000Y42980000D02*
X6515000Y42980000D01*
X2070000Y41075000D02*
X3975000Y42980000D01*
X2070000Y28375000D02*
X2070000Y41075000D01*
D34*
X16040000Y26470000D02*
X16040000Y27105000D01*
X16040000Y27105000D02*
X17310000Y28375000D01*
X17310000Y29645000D02*
X19215000Y31550000D01*
X17310000Y28375000D02*
X17310000Y29645000D01*
X16040000Y26470000D02*
X11595000Y26470000D01*
X11595000Y26470000D02*
X10325000Y25200000D01*
X10325000Y25200000D02*
X5880000Y25200000D01*
X5880000Y25200000D02*
X5245000Y25835000D01*
X5325000Y20120000D02*
X5325000Y25755000D01*
X5325000Y25755000D02*
X5245000Y25835000D01*
X5325000Y20120000D02*
X5325000Y18770000D01*
X5325000Y18770000D02*
X6515000Y17580000D01*
D32*
X6515000Y15040000D02*
X6515000Y17580000D01*
X7150000Y14405000D02*
X6515000Y15040000D01*
X12865000Y14405000D02*
X7150000Y14405000D01*
X14135000Y13135000D02*
X12865000Y14405000D01*
X34495640Y11865000D02*
X34455000Y11865000D01*
X34455000Y11865000D02*
X31915000Y9325000D01*
X41440000Y42980000D02*
X38820000Y42980000D01*
X31280000Y37900000D02*
X36360000Y37900000D01*
X41440000Y37900000D02*
X36360000Y37900000D01*
X36360000Y32820000D02*
X38900000Y35360000D01*
X38900000Y35360000D02*
X41440000Y35360000D01*
X31280000Y35360000D02*
X33820000Y35360000D01*
X33820000Y35360000D02*
X36360000Y32820000D01*
X10960000Y60760000D02*
X13500000Y60760000D01*
X13500000Y60760000D02*
X14135000Y61395000D01*
X56680000Y20120000D02*
X59220000Y20120000D01*
X59220000Y20120000D02*
X59220000Y15040000D01*
X63030000Y8690000D02*
X59855000Y8690000D01*
X59220000Y9325000D02*
X59220000Y15040000D01*
X59855000Y8690000D02*
X59220000Y9325000D01*
X63030000Y15040000D02*
X59220000Y15040000D01*
X65570000Y15040000D02*
X68745000Y18215000D01*
X72555000Y20120000D02*
X75095000Y20120000D01*
X70650000Y18215000D02*
X72555000Y20120000D01*
X68745000Y18215000D02*
X70650000Y18215000D01*
X65570000Y15040000D02*
X63665000Y16945000D01*
X61125000Y21390000D02*
X59855000Y22660000D01*
X61125000Y17580000D02*
X61125000Y21390000D01*
X61760000Y16945000D02*
X61125000Y17580000D01*
X63665000Y16945000D02*
X61760000Y16945000D01*
X59855000Y22660000D02*
X59220000Y22660000D01*
X56680000Y22660000D02*
X59220000Y22660000D01*
X65570000Y15040000D02*
X66840000Y13770000D01*
X66840000Y9960000D02*
X65570000Y8690000D01*
X66840000Y13770000D02*
X66840000Y9960000D01*
X68110000Y8690000D02*
X71920000Y12500000D01*
X71920000Y12500000D02*
X71920000Y16945000D01*
X68110000Y15040000D02*
X69380000Y16310000D01*
X70015000Y16945000D02*
X71920000Y16945000D01*
X69380000Y16310000D02*
X70015000Y16945000D01*
X60490000Y25200000D02*
X59220000Y25200000D01*
X61760000Y23930000D02*
X60490000Y25200000D01*
X61760000Y18215000D02*
X61760000Y23930000D01*
X62395000Y17580000D02*
X61760000Y18215000D01*
X65570000Y17580000D02*
X62395000Y17580000D01*
X66205000Y16945000D02*
X65570000Y17580000D01*
X56680000Y25200000D02*
X59220000Y25200000D01*
X36360000Y68380000D02*
X38900000Y68380000D01*
X38900000Y68380000D02*
X41440000Y65840000D01*
X41440000Y63300000D02*
X38900000Y65840000D01*
X38900000Y65840000D02*
X36360000Y65840000D01*
X41440000Y60760000D02*
X38900000Y63300000D01*
X38900000Y63300000D02*
X36360000Y63300000D01*
X36360000Y60760000D02*
X38900000Y60760000D01*
X38900000Y60760000D02*
X41440000Y58220000D01*
X36360000Y58220000D02*
X38900000Y58220000D01*
X38900000Y58220000D02*
X41440000Y55680000D01*
X28105000Y44250000D02*
X28105000Y46155000D01*
X34455000Y53775000D02*
X36360000Y55680000D01*
X34455000Y52505000D02*
X34455000Y53775000D01*
X28105000Y46155000D02*
X34455000Y52505000D01*
X36360000Y55680000D02*
X38900000Y55680000D01*
X38900000Y55680000D02*
X41440000Y53140000D01*
X25565000Y41710000D02*
X26835000Y42980000D01*
X26835000Y42980000D02*
X28740000Y42980000D01*
X28740000Y42980000D02*
X29375000Y43615000D01*
X29375000Y43615000D02*
X29375000Y45520000D01*
X29375000Y45520000D02*
X34455000Y50600000D01*
X34455000Y50600000D02*
X34455000Y51235000D01*
X34455000Y51235000D02*
X36360000Y53140000D01*
X36360000Y53140000D02*
X38900000Y53140000D01*
X38900000Y53140000D02*
X41440000Y50600000D01*
X28105000Y41710000D02*
X28740000Y41710000D01*
X28740000Y41710000D02*
X30010000Y42980000D01*
X30010000Y42980000D02*
X31280000Y42980000D01*
X31280000Y42980000D02*
X34455000Y46155000D01*
X34455000Y46155000D02*
X34455000Y48695000D01*
X34455000Y48695000D02*
X36360000Y50600000D01*
X36360000Y50600000D02*
X38900000Y50600000D01*
X38900000Y50600000D02*
X41440000Y48060000D01*
X30645000Y41710000D02*
X35725000Y41710000D01*
X36360000Y42345000D02*
X36360000Y48060000D01*
X35725000Y41710000D02*
X36360000Y42345000D01*
X36360000Y48060000D02*
X38900000Y48060000D01*
X38900000Y48060000D02*
X41440000Y45520000D01*
X30604360Y31550000D02*
X31915000Y31550000D01*
X33820000Y31550000D02*
X34455000Y30915000D01*
X34455000Y30915000D02*
X39535000Y30915000D01*
X39535000Y30915000D02*
X41440000Y32820000D01*
X31915000Y31550000D02*
X33820000Y31550000D01*
X36995000Y11865000D02*
X41440000Y11865000D01*
X43345000Y32820000D02*
X41440000Y32820000D01*
X44615000Y31550000D02*
X43345000Y32820000D01*
X44615000Y29010000D02*
X44615000Y31550000D01*
X44615000Y15040000D02*
X44615000Y26470000D01*
X41440000Y11865000D02*
X44615000Y15040000D01*
X36995000Y9325000D02*
X36995000Y11865000D01*
X28105000Y13770000D02*
X23660000Y13770000D01*
X35090000Y28375000D02*
X35090000Y18215000D01*
X35090000Y18215000D02*
X30645000Y13770000D01*
X30645000Y13770000D02*
X28105000Y13770000D01*
X23660000Y13770000D02*
X21755000Y11865000D01*
X21755000Y11865000D02*
X17310000Y11865000D01*
X6515000Y9960000D02*
X6515000Y11230000D01*
X7150000Y11865000D02*
X17310000Y11865000D01*
X6515000Y11230000D02*
X7150000Y11865000D01*
X35090000Y28375000D02*
X38265000Y28375000D01*
X38265000Y28375000D02*
X39535000Y28375000D01*
X39535000Y28375000D02*
X41440000Y30280000D01*
X38265000Y25835000D02*
X39535000Y25835000D01*
X39535000Y25835000D02*
X41440000Y27740000D01*
X52235000Y5515000D02*
X49695000Y8055000D01*
X47790000Y27740000D02*
X41440000Y27740000D01*
X49695000Y25835000D02*
X47790000Y27740000D01*
X49695000Y8055000D02*
X49695000Y25835000D01*
X55410000Y2340000D02*
X52235000Y5515000D01*
X24930000Y13135000D02*
X31280000Y13135000D01*
X31280000Y13135000D02*
X35725000Y17580000D01*
X35725000Y17580000D02*
X35725000Y22025000D01*
X35725000Y22025000D02*
X36995000Y23295000D01*
X38265000Y23295000D02*
X36995000Y23295000D01*
X24930000Y13135000D02*
X21755000Y9960000D01*
X38265000Y23295000D02*
X39535000Y23295000D01*
X39535000Y23295000D02*
X41440000Y25200000D01*
X38265000Y20755000D02*
X39535000Y20755000D01*
X39535000Y20755000D02*
X41440000Y22660000D01*
X38265000Y18215000D02*
X39535000Y18215000D01*
X39535000Y18215000D02*
X41440000Y20120000D01*
X68110000Y41075000D02*
X66205000Y39170000D01*
X66205000Y39170000D02*
X59855000Y39170000D01*
X59855000Y39170000D02*
X59220000Y39805000D01*
X59220000Y39805000D02*
X57950000Y39805000D01*
X57950000Y39805000D02*
X57315000Y39170000D01*
X57315000Y39170000D02*
X55410000Y39170000D01*
X55410000Y39170000D02*
X54140000Y37900000D01*
X54140000Y37900000D02*
X54140000Y22025000D01*
X54140000Y22025000D02*
X50965000Y18850000D01*
X49060000Y18850000D02*
X45885000Y18850000D01*
X71285000Y41075000D02*
X68110000Y41075000D01*
X71285000Y41075000D02*
X71920000Y41075000D01*
X71920000Y41075000D02*
X72555000Y40440000D01*
X72555000Y40440000D02*
X75730000Y40440000D01*
X75730000Y40440000D02*
X77000000Y41710000D01*
X38265000Y15675000D02*
X39535000Y15675000D01*
X39535000Y15675000D02*
X41440000Y17580000D01*
X73825000Y39170000D02*
X74460000Y39805000D01*
X70650000Y39170000D02*
X73825000Y39170000D01*
X70015000Y39805000D02*
X70650000Y39170000D01*
X68110000Y39805000D02*
X70015000Y39805000D01*
X66205000Y37900000D02*
X68110000Y39805000D01*
X66205000Y21390000D02*
X66205000Y37900000D01*
X63665000Y18850000D02*
X66205000Y21390000D01*
X71285000Y44885000D02*
X74460000Y41710000D01*
X56680000Y17580000D02*
X50965000Y17580000D01*
X33144360Y13770000D02*
X30604360Y11230000D01*
X40805000Y13770000D02*
X33144360Y13770000D01*
X41440000Y13135000D02*
X40805000Y13770000D01*
X43980000Y12500000D02*
X43345000Y12500000D01*
X49060000Y17580000D02*
X43980000Y12500000D01*
X56680000Y27740000D02*
X59220000Y27740000D01*
X56680000Y30280000D02*
X59220000Y30280000D01*
X56680000Y32820000D02*
X59220000Y32820000D01*
X56680000Y35360000D02*
X59220000Y35360000D01*
X56680000Y37900000D02*
X59220000Y37900000D01*
X56680000Y48060000D02*
X59220000Y48060000D01*
X59220000Y50600000D02*
X56680000Y50600000D01*
X59220000Y53140000D02*
X56680000Y53140000D01*
X56680000Y55680000D02*
X59220000Y55680000D01*
X59220000Y58220000D02*
X56680000Y58220000D01*
X56680000Y60760000D02*
X59220000Y60760000D01*
X59220000Y63300000D02*
X56680000Y63300000D01*
X56680000Y65840000D02*
X59220000Y65840000D01*
X14770000Y4245000D02*
X12230000Y4245000D01*
X11595000Y4880000D02*
X11595000Y9960000D01*
X12230000Y4245000D02*
X11595000Y4880000D01*
X17310000Y6785000D02*
X18580000Y5515000D01*
X27470000Y2975000D02*
X28105000Y2975000D01*
X26835000Y2340000D02*
X27470000Y2975000D01*
X19215000Y2340000D02*
X26835000Y2340000D01*
X18580000Y2975000D02*
X19215000Y2340000D01*
X18580000Y5515000D02*
X18580000Y2975000D01*
X34455000Y1705000D02*
X33185000Y2975000D01*
X33185000Y2975000D02*
X28105000Y2975000D01*
X33185000Y2975000D02*
X28105000Y2975000D01*
X22390000Y4245000D02*
X21120000Y5515000D01*
X17310000Y8690000D02*
X16675000Y9325000D01*
X19850000Y8690000D02*
X17310000Y8690000D01*
X21120000Y7420000D02*
X19850000Y8690000D01*
X21120000Y5515000D02*
X21120000Y7420000D01*
X16675000Y9325000D02*
X16675000Y9960000D01*
X19215000Y9960000D02*
X19850000Y9960000D01*
X19850000Y9960000D02*
X22390000Y7420000D01*
X22390000Y7420000D02*
X22390000Y6785000D01*
X24930000Y4245000D02*
X26835000Y6150000D01*
X42710000Y5515000D02*
X42075000Y6150000D01*
X42075000Y6150000D02*
X27470000Y6150000D01*
X42710000Y5515000D02*
X44615000Y5515000D01*
X26835000Y6150000D02*
X27470000Y6150000D01*
X24930000Y6785000D02*
X27470000Y6785000D01*
X43345000Y8055000D02*
X42075000Y6785000D01*
X42075000Y6785000D02*
X27470000Y6785000D01*
X43345000Y8055000D02*
X44615000Y8055000D01*
X77000000Y63300000D02*
X75730000Y62030000D01*
X73190000Y62030000D02*
X69380000Y65840000D01*
X75730000Y62030000D02*
X73190000Y62030000D01*
X74460000Y60760000D02*
X71920000Y60760000D01*
X71920000Y60760000D02*
X69380000Y63300000D01*
X69380000Y60760000D02*
X70015000Y60760000D01*
X70015000Y60760000D02*
X71285000Y59490000D01*
X71285000Y59490000D02*
X75730000Y59490000D01*
X75730000Y59490000D02*
X77000000Y60760000D01*
X74460000Y58220000D02*
X69380000Y58220000D01*
X77000000Y58220000D02*
X75730000Y56950000D01*
X70650000Y56950000D02*
X69380000Y55680000D01*
X75730000Y56950000D02*
X70650000Y56950000D01*
X69380000Y53140000D02*
X70015000Y53140000D01*
X70015000Y53140000D02*
X72555000Y55680000D01*
X72555000Y55680000D02*
X74460000Y55680000D01*
X77000000Y55680000D02*
X75730000Y54410000D01*
X73190000Y54410000D02*
X69380000Y50600000D01*
X75730000Y54410000D02*
X73190000Y54410000D01*
X74460000Y53140000D02*
X69380000Y48060000D01*
X26200000Y68380000D02*
X21755000Y68380000D01*
X26200000Y65840000D02*
X24930000Y67110000D01*
X20485000Y67110000D02*
X19215000Y65840000D01*
X24930000Y67110000D02*
X20485000Y67110000D01*
X21755000Y65840000D02*
X23660000Y65840000D01*
X23660000Y65840000D02*
X26200000Y63300000D01*
X26200000Y60760000D02*
X22390000Y64570000D01*
X20485000Y64570000D02*
X19215000Y63300000D01*
X22390000Y64570000D02*
X20485000Y64570000D01*
X21755000Y63300000D02*
X22390000Y63300000D01*
X22390000Y63300000D02*
X24295000Y61395000D01*
X24295000Y61395000D02*
X24295000Y60125000D01*
X24295000Y60125000D02*
X26200000Y58220000D01*
X21755000Y60760000D02*
X22390000Y60760000D01*
X22390000Y60760000D02*
X24295000Y58855000D01*
X24295000Y58855000D02*
X24295000Y55045000D01*
X24295000Y55045000D02*
X26200000Y53140000D01*
X19215000Y58220000D02*
X19215000Y57585000D01*
X19215000Y57585000D02*
X26200000Y50600000D01*
X69380000Y20120000D02*
X70015000Y20120000D01*
X70015000Y20120000D02*
X74460000Y24565000D01*
X77000000Y27105000D02*
X75730000Y25835000D01*
X73190000Y25835000D02*
X70015000Y22660000D01*
X75730000Y25835000D02*
X73190000Y25835000D01*
X70015000Y22660000D02*
X69380000Y22660000D01*
X74460000Y27105000D02*
X72555000Y27105000D01*
X70650000Y25200000D02*
X69380000Y25200000D01*
X72555000Y27105000D02*
X70650000Y25200000D01*
X69380000Y27740000D02*
X71285000Y27740000D01*
X75730000Y28375000D02*
X77000000Y29645000D01*
X71920000Y28375000D02*
X75730000Y28375000D01*
X71285000Y27740000D02*
X71920000Y28375000D01*
X74460000Y29645000D02*
X70015000Y29645000D01*
X70015000Y29645000D02*
X69380000Y30280000D01*
X77000000Y32185000D02*
X75730000Y30915000D01*
X70650000Y32820000D02*
X69380000Y32820000D01*
X72555000Y30915000D02*
X70650000Y32820000D01*
X75730000Y30915000D02*
X72555000Y30915000D01*
X74460000Y32185000D02*
X71285000Y35360000D01*
X71285000Y35360000D02*
X69380000Y35360000D01*
X69380000Y37900000D02*
X73825000Y37900000D01*
X73825000Y37900000D02*
X77000000Y34725000D01*
X28105000Y31550000D02*
X21755000Y31550000D01*
X19215000Y29010000D02*
X20485000Y30280000D01*
X26200000Y30280000D02*
X28105000Y28375000D01*
X24930000Y30280000D02*
X26200000Y30280000D01*
X23660000Y30280000D02*
X24930000Y30280000D01*
X20485000Y30280000D02*
X23660000Y30280000D01*
X28105000Y20755000D02*
X23660000Y25200000D01*
X19215000Y26470000D02*
X20485000Y27740000D01*
X26200000Y27740000D02*
X28105000Y25835000D01*
X25565000Y27740000D02*
X26200000Y27740000D01*
X20485000Y27740000D02*
X25565000Y27740000D01*
X21755000Y26470000D02*
X24930000Y26470000D01*
X24930000Y26470000D02*
X28105000Y23295000D01*
X24930000Y21390000D02*
X23660000Y22660000D01*
X28105000Y18215000D02*
X24930000Y21390000D01*
X24295000Y20755000D02*
X22390000Y22660000D01*
X26200000Y17580000D02*
X26200000Y18850000D01*
X26200000Y18850000D02*
X24295000Y20755000D01*
X28105000Y15675000D02*
X26200000Y17580000D01*
X22390000Y23295000D02*
X21755000Y23930000D01*
X22390000Y22660000D02*
X22390000Y23295000D01*
X23660000Y20120000D02*
X20485000Y20120000D01*
X25565000Y15675000D02*
X25565000Y18215000D01*
X23660000Y20120000D02*
X25565000Y18215000D01*
X20485000Y20120000D02*
X19215000Y21390000D01*
X28105000Y11230000D02*
X28105000Y11865000D01*
D33*
X12230000Y36630000D02*
X10325000Y36630000D01*
D34*
X15405000Y29645000D02*
X15405000Y33455000D01*
X15405000Y33455000D02*
X12230000Y36630000D01*
D33*
X10325000Y42982540D02*
X10325000Y36630000D01*
X10325000Y36630000D02*
X10325000Y35995000D01*
X10325000Y35995000D02*
X5245000Y30915000D01*
M02*
