G04 #@! TF.FileFunction,Legend,Top*
%FSLAX46Y46*%
G04 Gerber Fmt 4.6, Leading zero omitted, Abs format (unit mm)*
G04 Created by KiCad (PCBNEW 4.0.1-stable) date Sonntag, 31. Januar 2016 12:56:46*
%MOMM*%
G01*
G04 APERTURE LIST*
%ADD10C,0.100000*%
%ADD11C,0.300000*%
%ADD12C,0.200000*%
%ADD13C,0.150000*%
%ADD14R,2.127200X2.127200*%
%ADD15O,2.127200X2.127200*%
%ADD16C,2.398980*%
%ADD17R,2.398980X2.398980*%
%ADD18C,1.822400*%
%ADD19C,4.464000*%
%ADD20O,2.000000X2.000000*%
%ADD21O,2.899360X1.901140*%
%ADD22R,2.432000X2.127200*%
%ADD23O,2.432000X2.127200*%
%ADD24C,5.200600*%
%ADD25R,5.200600X5.200600*%
%ADD26C,4.210000*%
%ADD27R,1.924000X1.924000*%
%ADD28C,1.924000*%
%ADD29R,2.400000X2.400000*%
%ADD30C,2.400000*%
%ADD31R,1.700000X1.700000*%
%ADD32C,1.700000*%
G04 APERTURE END LIST*
D10*
D11*
X93028571Y39928572D02*
X93028571Y40214287D01*
X92957143Y40357144D01*
X92885714Y40428572D01*
X92671429Y40571430D01*
X92385714Y40642858D01*
X91814286Y40642858D01*
X91671429Y40571430D01*
X91600000Y40500001D01*
X91528571Y40357144D01*
X91528571Y40071430D01*
X91600000Y39928572D01*
X91671429Y39857144D01*
X91814286Y39785715D01*
X92171429Y39785715D01*
X92314286Y39857144D01*
X92385714Y39928572D01*
X92457143Y40071430D01*
X92457143Y40357144D01*
X92385714Y40500001D01*
X92314286Y40571430D01*
X92171429Y40642858D01*
X91671429Y41214286D02*
X91600000Y41285715D01*
X91528571Y41428572D01*
X91528571Y41785715D01*
X91600000Y41928572D01*
X91671429Y42000001D01*
X91814286Y42071429D01*
X91957143Y42071429D01*
X92171429Y42000001D01*
X93028571Y41142858D01*
X93028571Y42071429D01*
X92885714Y42714286D02*
X92957143Y42785714D01*
X93028571Y42714286D01*
X92957143Y42642857D01*
X92885714Y42714286D01*
X93028571Y42714286D01*
X91528571Y43714286D02*
X91528571Y43857143D01*
X91600000Y44000000D01*
X91671429Y44071429D01*
X91814286Y44142858D01*
X92100000Y44214286D01*
X92457143Y44214286D01*
X92742857Y44142858D01*
X92885714Y44071429D01*
X92957143Y44000000D01*
X93028571Y43857143D01*
X93028571Y43714286D01*
X92957143Y43571429D01*
X92885714Y43500000D01*
X92742857Y43428572D01*
X92457143Y43357143D01*
X92100000Y43357143D01*
X91814286Y43428572D01*
X91671429Y43500000D01*
X91600000Y43571429D01*
X91528571Y43714286D01*
X91528571Y45142857D02*
X91528571Y45285714D01*
X91600000Y45428571D01*
X91671429Y45500000D01*
X91814286Y45571429D01*
X92100000Y45642857D01*
X92457143Y45642857D01*
X92742857Y45571429D01*
X92885714Y45500000D01*
X92957143Y45428571D01*
X93028571Y45285714D01*
X93028571Y45142857D01*
X92957143Y45000000D01*
X92885714Y44928571D01*
X92742857Y44857143D01*
X92457143Y44785714D01*
X92100000Y44785714D01*
X91814286Y44857143D01*
X91671429Y44928571D01*
X91600000Y45000000D01*
X91528571Y45142857D01*
X91528571Y46571428D02*
X91528571Y46714285D01*
X91600000Y46857142D01*
X91671429Y46928571D01*
X91814286Y47000000D01*
X92100000Y47071428D01*
X92457143Y47071428D01*
X92742857Y47000000D01*
X92885714Y46928571D01*
X92957143Y46857142D01*
X93028571Y46714285D01*
X93028571Y46571428D01*
X92957143Y46428571D01*
X92885714Y46357142D01*
X92742857Y46285714D01*
X92457143Y46214285D01*
X92100000Y46214285D01*
X91814286Y46285714D01*
X91671429Y46357142D01*
X91600000Y46428571D01*
X91528571Y46571428D01*
X93028571Y48857142D02*
X92028571Y48857142D01*
X92171429Y48857142D02*
X92100000Y48928570D01*
X92028571Y49071428D01*
X92028571Y49285713D01*
X92100000Y49428570D01*
X92242857Y49499999D01*
X93028571Y49499999D01*
X92242857Y49499999D02*
X92100000Y49571428D01*
X92028571Y49714285D01*
X92028571Y49928570D01*
X92100000Y50071428D01*
X92242857Y50142856D01*
X93028571Y50142856D01*
X93028571Y50857142D02*
X92028571Y50857142D01*
X92171429Y50857142D02*
X92100000Y50928570D01*
X92028571Y51071428D01*
X92028571Y51285713D01*
X92100000Y51428570D01*
X92242857Y51499999D01*
X93028571Y51499999D01*
X92242857Y51499999D02*
X92100000Y51571428D01*
X92028571Y51714285D01*
X92028571Y51928570D01*
X92100000Y52071428D01*
X92242857Y52142856D01*
X93028571Y52142856D01*
X91000000Y0D02*
X91000000Y92000000D01*
X80000000Y0D02*
X93700000Y0D01*
X80000000Y92000000D02*
X93700000Y92000000D01*
X91000000Y92000000D02*
X91586421Y90873496D01*
X91000000Y92000000D02*
X90413579Y90873496D01*
X91000000Y0D02*
X91586421Y1126504D01*
X91000000Y0D02*
X90413579Y1126504D01*
D12*
X80000000Y74000000D02*
X0Y74000000D01*
X80000000Y73000000D02*
X80000000Y74000000D01*
D13*
X80000000Y92000000D02*
X80000000Y80000000D01*
X0Y92000000D02*
X80000000Y92000000D01*
X0Y74000000D02*
X0Y92000000D01*
X0Y74000000D02*
X0Y70000000D01*
D11*
X34071430Y-8171428D02*
X33928572Y-8099999D01*
X33857144Y-8028570D01*
X33785715Y-7885713D01*
X33785715Y-7814285D01*
X33857144Y-7671428D01*
X33928572Y-7599999D01*
X34071430Y-7528570D01*
X34357144Y-7528570D01*
X34500001Y-7599999D01*
X34571430Y-7671428D01*
X34642858Y-7814285D01*
X34642858Y-7885713D01*
X34571430Y-8028570D01*
X34500001Y-8099999D01*
X34357144Y-8171428D01*
X34071430Y-8171428D01*
X33928572Y-8242856D01*
X33857144Y-8314285D01*
X33785715Y-8457142D01*
X33785715Y-8742856D01*
X33857144Y-8885713D01*
X33928572Y-8957142D01*
X34071430Y-9028570D01*
X34357144Y-9028570D01*
X34500001Y-8957142D01*
X34571430Y-8885713D01*
X34642858Y-8742856D01*
X34642858Y-8457142D01*
X34571430Y-8314285D01*
X34500001Y-8242856D01*
X34357144Y-8171428D01*
X35571429Y-7528570D02*
X35714286Y-7528570D01*
X35857143Y-7599999D01*
X35928572Y-7671428D01*
X36000001Y-7814285D01*
X36071429Y-8099999D01*
X36071429Y-8457142D01*
X36000001Y-8742856D01*
X35928572Y-8885713D01*
X35857143Y-8957142D01*
X35714286Y-9028570D01*
X35571429Y-9028570D01*
X35428572Y-8957142D01*
X35357143Y-8885713D01*
X35285715Y-8742856D01*
X35214286Y-8457142D01*
X35214286Y-8099999D01*
X35285715Y-7814285D01*
X35357143Y-7671428D01*
X35428572Y-7599999D01*
X35571429Y-7528570D01*
X36714286Y-8885713D02*
X36785714Y-8957142D01*
X36714286Y-9028570D01*
X36642857Y-8957142D01*
X36714286Y-8885713D01*
X36714286Y-9028570D01*
X37714286Y-7528570D02*
X37857143Y-7528570D01*
X38000000Y-7599999D01*
X38071429Y-7671428D01*
X38142858Y-7814285D01*
X38214286Y-8099999D01*
X38214286Y-8457142D01*
X38142858Y-8742856D01*
X38071429Y-8885713D01*
X38000000Y-8957142D01*
X37857143Y-9028570D01*
X37714286Y-9028570D01*
X37571429Y-8957142D01*
X37500000Y-8885713D01*
X37428572Y-8742856D01*
X37357143Y-8457142D01*
X37357143Y-8099999D01*
X37428572Y-7814285D01*
X37500000Y-7671428D01*
X37571429Y-7599999D01*
X37714286Y-7528570D01*
X39142857Y-7528570D02*
X39285714Y-7528570D01*
X39428571Y-7599999D01*
X39500000Y-7671428D01*
X39571429Y-7814285D01*
X39642857Y-8099999D01*
X39642857Y-8457142D01*
X39571429Y-8742856D01*
X39500000Y-8885713D01*
X39428571Y-8957142D01*
X39285714Y-9028570D01*
X39142857Y-9028570D01*
X39000000Y-8957142D01*
X38928571Y-8885713D01*
X38857143Y-8742856D01*
X38785714Y-8457142D01*
X38785714Y-8099999D01*
X38857143Y-7814285D01*
X38928571Y-7671428D01*
X39000000Y-7599999D01*
X39142857Y-7528570D01*
X40571428Y-7528570D02*
X40714285Y-7528570D01*
X40857142Y-7599999D01*
X40928571Y-7671428D01*
X41000000Y-7814285D01*
X41071428Y-8099999D01*
X41071428Y-8457142D01*
X41000000Y-8742856D01*
X40928571Y-8885713D01*
X40857142Y-8957142D01*
X40714285Y-9028570D01*
X40571428Y-9028570D01*
X40428571Y-8957142D01*
X40357142Y-8885713D01*
X40285714Y-8742856D01*
X40214285Y-8457142D01*
X40214285Y-8099999D01*
X40285714Y-7814285D01*
X40357142Y-7671428D01*
X40428571Y-7599999D01*
X40571428Y-7528570D01*
X42857142Y-9028570D02*
X42857142Y-8028570D01*
X42857142Y-8171428D02*
X42928570Y-8099999D01*
X43071428Y-8028570D01*
X43285713Y-8028570D01*
X43428570Y-8099999D01*
X43499999Y-8242856D01*
X43499999Y-9028570D01*
X43499999Y-8242856D02*
X43571428Y-8099999D01*
X43714285Y-8028570D01*
X43928570Y-8028570D01*
X44071428Y-8099999D01*
X44142856Y-8242856D01*
X44142856Y-9028570D01*
X44857142Y-9028570D02*
X44857142Y-8028570D01*
X44857142Y-8171428D02*
X44928570Y-8099999D01*
X45071428Y-8028570D01*
X45285713Y-8028570D01*
X45428570Y-8099999D01*
X45499999Y-8242856D01*
X45499999Y-9028570D01*
X45499999Y-8242856D02*
X45571428Y-8099999D01*
X45714285Y-8028570D01*
X45928570Y-8028570D01*
X46071428Y-8099999D01*
X46142856Y-8242856D01*
X46142856Y-9028570D01*
X0Y-6999999D02*
X80000000Y-6999999D01*
X0Y0D02*
X0Y-9699999D01*
X80000000Y0D02*
X80000000Y-9699999D01*
X80000000Y-6999999D02*
X78873496Y-7586420D01*
X80000000Y-6999999D02*
X78873496Y-6413578D01*
X0Y-6999999D02*
X1126504Y-7586420D01*
X0Y-6999999D02*
X1126504Y-6413578D01*
D13*
X0Y0D02*
X0Y70000000D01*
X17000000Y0D02*
X0Y0D01*
X18000000Y0D02*
X17000000Y0D01*
X80000000Y0D02*
X18000000Y0D01*
X80000000Y80000000D02*
X80000000Y0D01*
X26835000Y40440000D02*
X31915000Y40440000D01*
X24015000Y40160000D02*
X24015000Y41710000D01*
X24295000Y42980000D02*
X26835000Y42980000D01*
X26835000Y42980000D02*
X26835000Y40440000D01*
X31915000Y40440000D02*
X31915000Y45520000D01*
X31915000Y45520000D02*
X26835000Y45520000D01*
X24015000Y40160000D02*
X25565000Y40160000D01*
X24295000Y45520000D02*
X24295000Y42980000D01*
X26835000Y45520000D02*
X24295000Y45520000D01*
X17945000Y42982540D02*
X18961000Y42982540D01*
X13119000Y42982540D02*
X11849000Y42982540D01*
X13373000Y44252540D02*
X13373000Y41712540D01*
X13627000Y44252540D02*
X13627000Y41712540D01*
X13881000Y44252540D02*
X13881000Y41712540D01*
X13119000Y44252540D02*
X13119000Y41712540D01*
X14135000Y44252540D02*
X12865000Y41712540D01*
X12865000Y44252540D02*
X14135000Y41712540D01*
X14135000Y44252540D02*
X14135000Y41712540D01*
X13500000Y44252540D02*
X13500000Y41712540D01*
X12865000Y41712540D02*
X12865000Y44252540D01*
X12865000Y44252540D02*
X17945000Y44252540D01*
X17945000Y44252540D02*
X17945000Y41712540D01*
X17945000Y41712540D02*
X12865000Y41712540D01*
X33820000Y38535000D02*
X33820000Y32185000D01*
X38900000Y38535000D02*
X38900000Y32185000D01*
X36360000Y29645000D02*
G75*
G03X38900000Y32185000I0J2540000D01*
G01*
X33820000Y32185000D02*
G75*
G03X36360000Y29645000I2540000J0D01*
G01*
X38900000Y38535000D02*
G75*
G03X36360000Y41075000I-2540000J0D01*
G01*
X36360000Y41075000D02*
G75*
G03X33820000Y38535000I0J-2540000D01*
G01*
X6286000Y4000000D02*
G75*
G03X6286000Y4000000I-2286000J0D01*
G01*
X6286000Y83000000D02*
G75*
G03X6286000Y83000000I-2286000J0D01*
G01*
X78286000Y83000000D02*
G75*
G03X78286000Y83000000I-2286000J0D01*
G01*
X78286000Y4000000D02*
G75*
G03X78286000Y4000000I-2286000J0D01*
G01*
X6286000Y69000000D02*
G75*
G03X6286000Y69000000I-2286000J0D01*
G01*
X78286000Y70000000D02*
G75*
G03X78286000Y70000000I-2286000J0D01*
G01*
X12210000Y63280000D02*
G75*
G03X12210000Y63280000I-1250000J0D01*
G01*
X31875000Y31550000D02*
G75*
G03X31875000Y31550000I-1250000J0D01*
G01*
X31875000Y11230000D02*
G75*
G03X31875000Y11230000I-1250000J0D01*
G01*
X35725000Y11865000D02*
G75*
G03X35725000Y11865000I-1250000J0D01*
G01*
X4220000Y10095000D02*
X5490000Y10095000D01*
X4220000Y17445000D02*
X5490000Y17445000D01*
X26590000Y17445000D02*
X25320000Y17445000D01*
X26590000Y10095000D02*
X25320000Y10095000D01*
X4220000Y10095000D02*
X4220000Y17445000D01*
X26590000Y10095000D02*
X26590000Y17445000D01*
X5490000Y10095000D02*
X5490000Y9160000D01*
X8293000Y29899000D02*
X7150000Y29899000D01*
X8293000Y26851000D02*
X7150000Y26851000D01*
X7150000Y23041000D02*
X3467000Y23041000D01*
X3467000Y23041000D02*
X3467000Y33709000D01*
X3467000Y33709000D02*
X7150000Y33709000D01*
X8293000Y23041000D02*
X7150000Y23041000D01*
X7150000Y23041000D02*
X7150000Y33709000D01*
X7150000Y33709000D02*
X8293000Y33709000D01*
X8293000Y28375000D02*
X8293000Y33709000D01*
X8293000Y28375000D02*
X8293000Y23041000D01*
X44750000Y12890000D02*
X44750000Y11620000D01*
X52100000Y12890000D02*
X52100000Y11620000D01*
X52100000Y680000D02*
X52100000Y1950000D01*
X44750000Y680000D02*
X44750000Y1950000D01*
X44750000Y12890000D02*
X52100000Y12890000D01*
X44750000Y680000D02*
X52100000Y680000D01*
X44750000Y11620000D02*
X43815000Y11620000D01*
X29620000Y1840000D02*
X30890000Y1840000D01*
X29620000Y9190000D02*
X30890000Y9190000D01*
X41830000Y9190000D02*
X40560000Y9190000D01*
X41830000Y1840000D02*
X40560000Y1840000D01*
X29620000Y1840000D02*
X29620000Y9190000D01*
X41830000Y1840000D02*
X41830000Y9190000D01*
X30890000Y1840000D02*
X30890000Y905000D01*
X35725000Y14405000D02*
X30645000Y14405000D01*
X30645000Y14405000D02*
X30645000Y16945000D01*
X30645000Y16945000D02*
X35725000Y16945000D01*
X35725000Y16945000D02*
X35725000Y14405000D01*
X35725000Y15675000D02*
X36995000Y15675000D01*
X30645000Y15675000D02*
X29375000Y15675000D01*
X35725000Y16945000D02*
X30645000Y16945000D01*
X30645000Y16945000D02*
X30645000Y19485000D01*
X30645000Y19485000D02*
X35725000Y19485000D01*
X35725000Y19485000D02*
X35725000Y16945000D01*
X35725000Y18215000D02*
X36995000Y18215000D01*
X30645000Y18215000D02*
X29375000Y18215000D01*
X35725000Y22025000D02*
X30645000Y22025000D01*
X30645000Y22025000D02*
X30645000Y24565000D01*
X30645000Y24565000D02*
X35725000Y24565000D01*
X35725000Y24565000D02*
X35725000Y22025000D01*
X35725000Y23295000D02*
X36995000Y23295000D01*
X30645000Y23295000D02*
X29375000Y23295000D01*
X35725000Y24565000D02*
X30645000Y24565000D01*
X30645000Y24565000D02*
X30645000Y27105000D01*
X30645000Y27105000D02*
X35725000Y27105000D01*
X35725000Y27105000D02*
X35725000Y24565000D01*
X35725000Y25835000D02*
X36995000Y25835000D01*
X30645000Y25835000D02*
X29375000Y25835000D01*
X35725000Y19485000D02*
X30645000Y19485000D01*
X30645000Y19485000D02*
X30645000Y22025000D01*
X30645000Y22025000D02*
X35725000Y22025000D01*
X35725000Y22025000D02*
X35725000Y19485000D01*
X35725000Y20755000D02*
X36995000Y20755000D01*
X30645000Y20755000D02*
X29375000Y20755000D01*
X35725000Y27105000D02*
X30645000Y27105000D01*
X30645000Y27105000D02*
X30645000Y29645000D01*
X30645000Y29645000D02*
X35725000Y29645000D01*
X35725000Y29645000D02*
X35725000Y27105000D01*
X35725000Y28375000D02*
X36995000Y28375000D01*
X30645000Y28375000D02*
X29375000Y28375000D01*
X61760000Y39170000D02*
X66840000Y39170000D01*
X66840000Y39170000D02*
X66840000Y36630000D01*
X66840000Y36630000D02*
X61760000Y36630000D01*
X61760000Y36630000D02*
X61760000Y39170000D01*
X61760000Y37900000D02*
X60490000Y37900000D01*
X66840000Y37900000D02*
X68110000Y37900000D01*
X61760000Y36630000D02*
X66840000Y36630000D01*
X66840000Y36630000D02*
X66840000Y34090000D01*
X66840000Y34090000D02*
X61760000Y34090000D01*
X61760000Y34090000D02*
X61760000Y36630000D01*
X61760000Y35360000D02*
X60490000Y35360000D01*
X66840000Y35360000D02*
X68110000Y35360000D01*
X61760000Y34090000D02*
X66840000Y34090000D01*
X66840000Y34090000D02*
X66840000Y31550000D01*
X66840000Y31550000D02*
X61760000Y31550000D01*
X61760000Y31550000D02*
X61760000Y34090000D01*
X61760000Y32820000D02*
X60490000Y32820000D01*
X66840000Y32820000D02*
X68110000Y32820000D01*
X61760000Y31550000D02*
X66840000Y31550000D01*
X66840000Y31550000D02*
X66840000Y29010000D01*
X66840000Y29010000D02*
X61760000Y29010000D01*
X61760000Y29010000D02*
X61760000Y31550000D01*
X61760000Y30280000D02*
X60490000Y30280000D01*
X66840000Y30280000D02*
X68110000Y30280000D01*
X61760000Y29010000D02*
X66840000Y29010000D01*
X66840000Y29010000D02*
X66840000Y26470000D01*
X66840000Y26470000D02*
X61760000Y26470000D01*
X61760000Y26470000D02*
X61760000Y29010000D01*
X61760000Y27740000D02*
X60490000Y27740000D01*
X66840000Y27740000D02*
X68110000Y27740000D01*
X61760000Y26470000D02*
X66840000Y26470000D01*
X66840000Y26470000D02*
X66840000Y23930000D01*
X66840000Y23930000D02*
X61760000Y23930000D01*
X61760000Y23930000D02*
X61760000Y26470000D01*
X61760000Y25200000D02*
X60490000Y25200000D01*
X66840000Y25200000D02*
X68110000Y25200000D01*
X61760000Y23930000D02*
X66840000Y23930000D01*
X66840000Y23930000D02*
X66840000Y21390000D01*
X66840000Y21390000D02*
X61760000Y21390000D01*
X61760000Y21390000D02*
X61760000Y23930000D01*
X61760000Y22660000D02*
X60490000Y22660000D01*
X66840000Y22660000D02*
X68110000Y22660000D01*
X61760000Y21390000D02*
X66840000Y21390000D01*
X66840000Y21390000D02*
X66840000Y18850000D01*
X66840000Y18850000D02*
X61760000Y18850000D01*
X61760000Y18850000D02*
X61760000Y21390000D01*
X61760000Y20120000D02*
X60490000Y20120000D01*
X66840000Y20120000D02*
X68110000Y20120000D01*
X33820000Y49330000D02*
X28740000Y49330000D01*
X28740000Y49330000D02*
X28740000Y51870000D01*
X28740000Y51870000D02*
X33820000Y51870000D01*
X33820000Y51870000D02*
X33820000Y49330000D01*
X33820000Y50600000D02*
X35090000Y50600000D01*
X28740000Y50600000D02*
X27470000Y50600000D01*
X33820000Y51870000D02*
X28740000Y51870000D01*
X28740000Y51870000D02*
X28740000Y54410000D01*
X28740000Y54410000D02*
X33820000Y54410000D01*
X33820000Y54410000D02*
X33820000Y51870000D01*
X33820000Y53140000D02*
X35090000Y53140000D01*
X28740000Y53140000D02*
X27470000Y53140000D01*
X33820000Y54410000D02*
X28740000Y54410000D01*
X28740000Y54410000D02*
X28740000Y56950000D01*
X28740000Y56950000D02*
X33820000Y56950000D01*
X33820000Y56950000D02*
X33820000Y54410000D01*
X33820000Y55680000D02*
X35090000Y55680000D01*
X28740000Y55680000D02*
X27470000Y55680000D01*
X33820000Y56950000D02*
X28740000Y56950000D01*
X28740000Y56950000D02*
X28740000Y59490000D01*
X28740000Y59490000D02*
X33820000Y59490000D01*
X33820000Y59490000D02*
X33820000Y56950000D01*
X33820000Y58220000D02*
X35090000Y58220000D01*
X28740000Y58220000D02*
X27470000Y58220000D01*
X33820000Y59490000D02*
X28740000Y59490000D01*
X28740000Y59490000D02*
X28740000Y62030000D01*
X28740000Y62030000D02*
X33820000Y62030000D01*
X33820000Y62030000D02*
X33820000Y59490000D01*
X33820000Y60760000D02*
X35090000Y60760000D01*
X28740000Y60760000D02*
X27470000Y60760000D01*
X33820000Y62030000D02*
X28740000Y62030000D01*
X28740000Y62030000D02*
X28740000Y64570000D01*
X28740000Y64570000D02*
X33820000Y64570000D01*
X33820000Y64570000D02*
X33820000Y62030000D01*
X33820000Y63300000D02*
X35090000Y63300000D01*
X28740000Y63300000D02*
X27470000Y63300000D01*
X33820000Y64570000D02*
X28740000Y64570000D01*
X28740000Y64570000D02*
X28740000Y67110000D01*
X28740000Y67110000D02*
X33820000Y67110000D01*
X33820000Y67110000D02*
X33820000Y64570000D01*
X33820000Y65840000D02*
X35090000Y65840000D01*
X28740000Y65840000D02*
X27470000Y65840000D01*
X33820000Y67110000D02*
X28740000Y67110000D01*
X28740000Y67110000D02*
X28740000Y69650000D01*
X28740000Y69650000D02*
X33820000Y69650000D01*
X33820000Y69650000D02*
X33820000Y67110000D01*
X33820000Y68380000D02*
X35090000Y68380000D01*
X28740000Y68380000D02*
X27470000Y68380000D01*
X61760000Y49330000D02*
X66840000Y49330000D01*
X66840000Y49330000D02*
X66840000Y46790000D01*
X66840000Y46790000D02*
X61760000Y46790000D01*
X61760000Y46790000D02*
X61760000Y49330000D01*
X61760000Y48060000D02*
X60490000Y48060000D01*
X66840000Y48060000D02*
X68110000Y48060000D01*
X61760000Y51870000D02*
X66840000Y51870000D01*
X66840000Y51870000D02*
X66840000Y49330000D01*
X66840000Y49330000D02*
X61760000Y49330000D01*
X61760000Y49330000D02*
X61760000Y51870000D01*
X61760000Y50600000D02*
X60490000Y50600000D01*
X66840000Y50600000D02*
X68110000Y50600000D01*
X61760000Y54410000D02*
X66840000Y54410000D01*
X66840000Y54410000D02*
X66840000Y51870000D01*
X66840000Y51870000D02*
X61760000Y51870000D01*
X61760000Y51870000D02*
X61760000Y54410000D01*
X61760000Y53140000D02*
X60490000Y53140000D01*
X66840000Y53140000D02*
X68110000Y53140000D01*
X61760000Y56950000D02*
X66840000Y56950000D01*
X66840000Y56950000D02*
X66840000Y54410000D01*
X66840000Y54410000D02*
X61760000Y54410000D01*
X61760000Y54410000D02*
X61760000Y56950000D01*
X61760000Y55680000D02*
X60490000Y55680000D01*
X66840000Y55680000D02*
X68110000Y55680000D01*
X61760000Y59490000D02*
X66840000Y59490000D01*
X66840000Y59490000D02*
X66840000Y56950000D01*
X66840000Y56950000D02*
X61760000Y56950000D01*
X61760000Y56950000D02*
X61760000Y59490000D01*
X61760000Y58220000D02*
X60490000Y58220000D01*
X66840000Y58220000D02*
X68110000Y58220000D01*
X61760000Y62030000D02*
X66840000Y62030000D01*
X66840000Y62030000D02*
X66840000Y59490000D01*
X66840000Y59490000D02*
X61760000Y59490000D01*
X61760000Y59490000D02*
X61760000Y62030000D01*
X61760000Y60760000D02*
X60490000Y60760000D01*
X66840000Y60760000D02*
X68110000Y60760000D01*
X61760000Y64570000D02*
X66840000Y64570000D01*
X66840000Y64570000D02*
X66840000Y62030000D01*
X66840000Y62030000D02*
X61760000Y62030000D01*
X61760000Y62030000D02*
X61760000Y64570000D01*
X61760000Y63300000D02*
X60490000Y63300000D01*
X66840000Y63300000D02*
X68110000Y63300000D01*
X61760000Y67110000D02*
X66840000Y67110000D01*
X66840000Y67110000D02*
X66840000Y64570000D01*
X66840000Y64570000D02*
X61760000Y64570000D01*
X61760000Y64570000D02*
X61760000Y67110000D01*
X61760000Y65840000D02*
X60490000Y65840000D01*
X66840000Y65840000D02*
X68110000Y65840000D01*
X63665000Y46155000D02*
X68745000Y46155000D01*
X68745000Y46155000D02*
X68745000Y43615000D01*
X68745000Y43615000D02*
X63665000Y43615000D01*
X63665000Y43615000D02*
X63665000Y46155000D01*
X63665000Y44885000D02*
X62395000Y44885000D01*
X68745000Y44885000D02*
X70015000Y44885000D01*
X63665000Y42345000D02*
X68745000Y42345000D01*
X68745000Y42345000D02*
X68745000Y39805000D01*
X68745000Y39805000D02*
X63665000Y39805000D01*
X63665000Y39805000D02*
X63665000Y42345000D01*
X63665000Y41075000D02*
X62395000Y41075000D01*
X68745000Y41075000D02*
X70015000Y41075000D01*
X33820000Y46790000D02*
X28740000Y46790000D01*
X28740000Y46790000D02*
X28740000Y49330000D01*
X28740000Y49330000D02*
X33820000Y49330000D01*
X33820000Y49330000D02*
X33820000Y46790000D01*
X33820000Y48060000D02*
X35090000Y48060000D01*
X28740000Y48060000D02*
X27470000Y48060000D01*
X70650000Y9325000D02*
X70650000Y14405000D01*
X70650000Y14405000D02*
X73190000Y14405000D01*
X73190000Y14405000D02*
X73190000Y9325000D01*
X73190000Y9325000D02*
X70650000Y9325000D01*
X71920000Y9325000D02*
X71920000Y8055000D01*
X71920000Y14405000D02*
X71920000Y15675000D01*
X73825000Y12500000D02*
X73825000Y17580000D01*
X73825000Y17580000D02*
X76365000Y17580000D01*
X76365000Y17580000D02*
X76365000Y12500000D01*
X76365000Y12500000D02*
X73825000Y12500000D01*
X75095000Y12500000D02*
X75095000Y11230000D01*
X75095000Y17580000D02*
X75095000Y18850000D01*
X57950000Y7420000D02*
X57950000Y12500000D01*
X57950000Y12500000D02*
X60490000Y12500000D01*
X60490000Y12500000D02*
X60490000Y7420000D01*
X60490000Y7420000D02*
X57950000Y7420000D01*
X59220000Y7420000D02*
X59220000Y6150000D01*
X59220000Y12500000D02*
X59220000Y13770000D01*
X56680000Y9960000D02*
X56680000Y4880000D01*
X56680000Y4880000D02*
X54140000Y4880000D01*
X54140000Y4880000D02*
X54140000Y9960000D01*
X54140000Y9960000D02*
X56680000Y9960000D01*
X55410000Y9960000D02*
X55410000Y11230000D01*
X55410000Y4880000D02*
X55410000Y3610000D01*
X7815000Y38890000D02*
X7815000Y40440000D01*
X6515000Y38890000D02*
X7815000Y38890000D01*
X2324000Y40313000D02*
X-3518000Y40313000D01*
X-3518000Y40313000D02*
X-3518000Y40567000D01*
X-3518000Y40567000D02*
X2324000Y40567000D01*
X2324000Y40567000D02*
X2324000Y40440000D01*
X2324000Y40440000D02*
X-3518000Y40440000D01*
X4991000Y40186000D02*
X5372000Y40186000D01*
X4991000Y40694000D02*
X5372000Y40694000D01*
X4991000Y42726000D02*
X5372000Y42726000D01*
X4991000Y43234000D02*
X5372000Y43234000D01*
X4991000Y45266000D02*
X5372000Y45266000D01*
X4991000Y45774000D02*
X5372000Y45774000D01*
X2451000Y41710000D02*
X2451000Y39170000D01*
X-3645000Y40694000D02*
X2451000Y40694000D01*
X-3645000Y40186000D02*
X-3645000Y40694000D01*
X2451000Y40186000D02*
X-3645000Y40186000D01*
X4991000Y41710000D02*
X2451000Y41710000D01*
X4991000Y39170000D02*
X4991000Y41710000D01*
X4991000Y39170000D02*
X2451000Y39170000D01*
X4991000Y44250000D02*
X2451000Y44250000D01*
X4991000Y44250000D02*
X4991000Y46790000D01*
X2451000Y45266000D02*
X-3645000Y45266000D01*
X-3645000Y45266000D02*
X-3645000Y45774000D01*
X-3645000Y45774000D02*
X2451000Y45774000D01*
X2451000Y46790000D02*
X2451000Y44250000D01*
X2451000Y44250000D02*
X2451000Y41710000D01*
X-3645000Y43234000D02*
X2451000Y43234000D01*
X-3645000Y42726000D02*
X-3645000Y43234000D01*
X2451000Y42726000D02*
X-3645000Y42726000D01*
X4991000Y44250000D02*
X2451000Y44250000D01*
X4991000Y41710000D02*
X4991000Y44250000D01*
X4991000Y41710000D02*
X2451000Y41710000D01*
X4991000Y46790000D02*
X2451000Y46790000D01*
X673000Y58093000D02*
X-89000Y58093000D01*
X-89000Y58093000D02*
X-89000Y49457000D01*
X-89000Y49457000D02*
X673000Y49457000D01*
X3721000Y58093000D02*
X3721000Y49457000D01*
X13373000Y58093000D02*
X13373000Y49457000D01*
X673000Y49457000D02*
X13373000Y49457000D01*
X673000Y58093000D02*
X13373000Y58093000D01*
X23025000Y32820000D02*
X23025000Y20120000D01*
X23025000Y20120000D02*
X17945000Y20120000D01*
X17945000Y20120000D02*
X17945000Y30280000D01*
X23025000Y32820000D02*
X20485000Y32820000D01*
X19215000Y33100000D02*
X17665000Y33100000D01*
X20485000Y32820000D02*
X20485000Y30280000D01*
X20485000Y30280000D02*
X17945000Y30280000D01*
X17665000Y33100000D02*
X17665000Y31550000D01*
X73190000Y23295000D02*
X73190000Y35995000D01*
X73190000Y35995000D02*
X78270000Y35995000D01*
X78270000Y35995000D02*
X78270000Y25835000D01*
X73190000Y23295000D02*
X75730000Y23295000D01*
X77000000Y23015000D02*
X78550000Y23015000D01*
X75730000Y23295000D02*
X75730000Y25835000D01*
X75730000Y25835000D02*
X78270000Y25835000D01*
X78550000Y23015000D02*
X78550000Y24565000D01*
X23025000Y69650000D02*
X23025000Y56950000D01*
X23025000Y56950000D02*
X17945000Y56950000D01*
X17945000Y56950000D02*
X17945000Y67110000D01*
X23025000Y69650000D02*
X20485000Y69650000D01*
X19215000Y69930000D02*
X17665000Y69930000D01*
X20485000Y69650000D02*
X20485000Y67110000D01*
X20485000Y67110000D02*
X17945000Y67110000D01*
X17665000Y69930000D02*
X17665000Y68380000D01*
X78270000Y64570000D02*
X78270000Y51870000D01*
X78270000Y51870000D02*
X73190000Y51870000D01*
X73190000Y51870000D02*
X73190000Y62030000D01*
X78270000Y64570000D02*
X75730000Y64570000D01*
X74460000Y64850000D02*
X72910000Y64850000D01*
X75730000Y64570000D02*
X75730000Y62030000D01*
X75730000Y62030000D02*
X73190000Y62030000D01*
X72910000Y64850000D02*
X72910000Y63300000D01*
X78270000Y42980000D02*
X78270000Y48060000D01*
X78550000Y40160000D02*
X77000000Y40160000D01*
X75730000Y40440000D02*
X75730000Y42980000D01*
X75730000Y42980000D02*
X78270000Y42980000D01*
X78270000Y48060000D02*
X73190000Y48060000D01*
X73190000Y48060000D02*
X73190000Y42980000D01*
X78550000Y40160000D02*
X78550000Y41710000D01*
X73190000Y40440000D02*
X75730000Y40440000D01*
X73190000Y42980000D02*
X73190000Y40440000D01*
X13500000Y8055000D02*
X26200000Y8055000D01*
X26200000Y8055000D02*
X26200000Y2975000D01*
X26200000Y2975000D02*
X16040000Y2975000D01*
X13500000Y8055000D02*
X13500000Y5515000D01*
X13220000Y4245000D02*
X13220000Y2695000D01*
X13500000Y5515000D02*
X16040000Y5515000D01*
X16040000Y5515000D02*
X16040000Y2975000D01*
X13220000Y2695000D02*
X14770000Y2695000D01*
X47790000Y81080000D02*
X60490000Y81080000D01*
X60490000Y81080000D02*
X60490000Y76000000D01*
X60490000Y76000000D02*
X50330000Y76000000D01*
X47790000Y81080000D02*
X47790000Y78540000D01*
X47510000Y77270000D02*
X47510000Y75720000D01*
X47790000Y78540000D02*
X50330000Y78540000D01*
X50330000Y78540000D02*
X50330000Y76000000D01*
X47510000Y75720000D02*
X49060000Y75720000D01*
X41575000Y68135000D02*
X41575000Y66865000D01*
X56545000Y68135000D02*
X56545000Y66865000D01*
X56545000Y15285000D02*
X56545000Y16555000D01*
X41575000Y15285000D02*
X41575000Y16555000D01*
X41575000Y68135000D02*
X56545000Y68135000D01*
X41575000Y15285000D02*
X56545000Y15285000D01*
X41575000Y66865000D02*
X40640000Y66865000D01*
X64300000Y4880000D02*
X69380000Y4880000D01*
X61480000Y4600000D02*
X61480000Y6150000D01*
X61760000Y7420000D02*
X64300000Y7420000D01*
X64300000Y7420000D02*
X64300000Y4880000D01*
X69380000Y4880000D02*
X69380000Y9960000D01*
X69380000Y9960000D02*
X64300000Y9960000D01*
X61480000Y4600000D02*
X63030000Y4600000D01*
X61760000Y9960000D02*
X61760000Y7420000D01*
X64300000Y9960000D02*
X61760000Y9960000D01*
X64300000Y11230000D02*
X69380000Y11230000D01*
X61480000Y10950000D02*
X61480000Y12500000D01*
X61760000Y13770000D02*
X64300000Y13770000D01*
X64300000Y13770000D02*
X64300000Y11230000D01*
X69380000Y11230000D02*
X69380000Y16310000D01*
X69380000Y16310000D02*
X64300000Y16310000D01*
X61480000Y10950000D02*
X63030000Y10950000D01*
X61760000Y16310000D02*
X61760000Y13770000D01*
X64300000Y16310000D02*
X61760000Y16310000D01*
X13119000Y82477000D02*
X13119000Y75873000D01*
X13119000Y75873000D02*
X43091000Y75873000D01*
X43091000Y75873000D02*
X43091000Y82477000D01*
X43091000Y82477000D02*
X13119000Y82477000D01*
X12821000Y64134000D02*
X13021000Y64134000D01*
X15415000Y64134000D02*
X15235000Y64134000D01*
X15104643Y60906256D02*
G75*
G03X15421000Y64134000I-1003643J1727744D01*
G01*
X15234068Y61581994D02*
G75*
G03X15235000Y63685000I-1133068J1052006D01*
G01*
X12794274Y64121220D02*
G75*
G03X13141000Y60884000I1306726J-1497220D01*
G01*
X13021747Y63647889D02*
G75*
G03X13041000Y61600000I1079253J-1013889D01*
G01*
X32820000Y44230000D02*
X39820000Y44230000D01*
X39820000Y44230000D02*
X39820000Y41730000D01*
X39820000Y41730000D02*
X32820000Y41730000D01*
X32820000Y41730000D02*
X32820000Y44230000D01*
X32280000Y34110000D02*
X25280000Y34110000D01*
X25280000Y34110000D02*
X25280000Y36610000D01*
X25280000Y36610000D02*
X32280000Y36610000D01*
X32280000Y36610000D02*
X32280000Y34110000D01*
X32280000Y36650000D02*
X25280000Y36650000D01*
X25280000Y36650000D02*
X25280000Y39150000D01*
X25280000Y39150000D02*
X32280000Y39150000D01*
X32280000Y39150000D02*
X32280000Y36650000D01*
X11650000Y27699000D02*
X11650000Y22701000D01*
X11790000Y27691000D02*
X11790000Y22709000D01*
X11930000Y27675000D02*
X11930000Y25295000D01*
X11930000Y25105000D02*
X11930000Y22725000D01*
X12070000Y27651000D02*
X12070000Y25690000D01*
X12070000Y24710000D02*
X12070000Y22749000D01*
X12210000Y27618000D02*
X12210000Y25857000D01*
X12210000Y24543000D02*
X12210000Y22782000D01*
X12350000Y27577000D02*
X12350000Y25964000D01*
X12350000Y24436000D02*
X12350000Y22823000D01*
X12490000Y27527000D02*
X12490000Y26035000D01*
X12490000Y24365000D02*
X12490000Y22873000D01*
X12630000Y27466000D02*
X12630000Y26079000D01*
X12630000Y24321000D02*
X12630000Y22934000D01*
X12770000Y27396000D02*
X12770000Y26098000D01*
X12770000Y24302000D02*
X12770000Y23004000D01*
X12910000Y27314000D02*
X12910000Y26096000D01*
X12910000Y24304000D02*
X12910000Y23086000D01*
X13050000Y27219000D02*
X13050000Y26071000D01*
X13050000Y24329000D02*
X13050000Y23181000D01*
X13190000Y27108000D02*
X13190000Y26023000D01*
X13190000Y24377000D02*
X13190000Y23292000D01*
X13330000Y26980000D02*
X13330000Y25945000D01*
X13330000Y24455000D02*
X13330000Y23420000D01*
X13470000Y26831000D02*
X13470000Y25828000D01*
X13470000Y24572000D02*
X13470000Y23569000D01*
X13610000Y26652000D02*
X13610000Y25640000D01*
X13610000Y24760000D02*
X13610000Y23748000D01*
X13750000Y26433000D02*
X13750000Y23967000D01*
X13890000Y26144000D02*
X13890000Y24256000D01*
X14030000Y25672000D02*
X14030000Y24728000D01*
X13725000Y25200000D02*
G75*
G03X13725000Y25200000I-900000J0D01*
G01*
X14112500Y25200000D02*
G75*
G03X14112500Y25200000I-2537500J0D01*
G01*
X17290000Y27470000D02*
X17290000Y20470000D01*
X17290000Y20470000D02*
X14790000Y20470000D01*
X14790000Y20470000D02*
X14790000Y27470000D01*
X14790000Y27470000D02*
X17290000Y27470000D01*
X11325000Y18870000D02*
X4325000Y18870000D01*
X4325000Y18870000D02*
X4325000Y21370000D01*
X4325000Y21370000D02*
X11325000Y21370000D01*
X11325000Y21370000D02*
X11325000Y18870000D01*
X16405000Y28395000D02*
X9405000Y28395000D01*
X9405000Y28395000D02*
X9405000Y30895000D01*
X9405000Y30895000D02*
X16405000Y30895000D01*
X16405000Y30895000D02*
X16405000Y28395000D01*
X13555000Y41629000D02*
X13555000Y31631000D01*
X13695000Y41625000D02*
X13695000Y31635000D01*
X13835000Y41617000D02*
X13835000Y37076000D01*
X13835000Y36184000D02*
X13835000Y31643000D01*
X13975000Y41605000D02*
X13975000Y37286000D01*
X13975000Y35974000D02*
X13975000Y31655000D01*
X14115000Y41590000D02*
X14115000Y37419000D01*
X14115000Y35841000D02*
X14115000Y31670000D01*
X14255000Y41570000D02*
X14255000Y37510000D01*
X14255000Y35750000D02*
X14255000Y31690000D01*
X14395000Y41546000D02*
X14395000Y37572000D01*
X14395000Y35688000D02*
X14395000Y31714000D01*
X14535000Y41517000D02*
X14535000Y37611000D01*
X14535000Y35649000D02*
X14535000Y31743000D01*
X14675000Y41485000D02*
X14675000Y37628000D01*
X14675000Y35632000D02*
X14675000Y31775000D01*
X14815000Y41448000D02*
X14815000Y37626000D01*
X14815000Y35634000D02*
X14815000Y31812000D01*
X14955000Y41407000D02*
X14955000Y37604000D01*
X14955000Y35656000D02*
X14955000Y31853000D01*
X15095000Y41362000D02*
X15095000Y37561000D01*
X15095000Y35699000D02*
X15095000Y31898000D01*
X15235000Y41312000D02*
X15235000Y37493000D01*
X15235000Y35767000D02*
X15235000Y31948000D01*
X15375000Y41257000D02*
X15375000Y37394000D01*
X15375000Y35866000D02*
X15375000Y32003000D01*
X15515000Y41197000D02*
X15515000Y37249000D01*
X15515000Y36011000D02*
X15515000Y32063000D01*
X15655000Y41132000D02*
X15655000Y37010000D01*
X15655000Y36250000D02*
X15655000Y32128000D01*
X15795000Y41062000D02*
X15795000Y32198000D01*
X15935000Y40986000D02*
X15935000Y32274000D01*
X16075000Y40904000D02*
X16075000Y32356000D01*
X16215000Y40816000D02*
X16215000Y32444000D01*
X16355000Y40721000D02*
X16355000Y32539000D01*
X16495000Y40619000D02*
X16495000Y32641000D01*
X16635000Y40509000D02*
X16635000Y32751000D01*
X16775000Y40391000D02*
X16775000Y32869000D01*
X16915000Y40263000D02*
X16915000Y32997000D01*
X17055000Y40126000D02*
X17055000Y33134000D01*
X17195000Y39976000D02*
X17195000Y33284000D01*
X17335000Y39814000D02*
X17335000Y33446000D01*
X17475000Y39637000D02*
X17475000Y33623000D01*
X17615000Y39441000D02*
X17615000Y33819000D01*
X17755000Y39223000D02*
X17755000Y34037000D01*
X17895000Y38977000D02*
X17895000Y34283000D01*
X18035000Y38692000D02*
X18035000Y34568000D01*
X18175000Y38350000D02*
X18175000Y34910000D01*
X18315000Y37904000D02*
X18315000Y35356000D01*
X18455000Y37129000D02*
X18455000Y36131000D01*
X15730000Y36630000D02*
G75*
G03X15730000Y36630000I-1000000J0D01*
G01*
X18517500Y36630000D02*
G75*
G03X18517500Y36630000I-5037500J0D01*
G01*
X41694000Y90097000D02*
X41694000Y83493000D01*
X41694000Y83493000D02*
X71666000Y83493000D01*
X71666000Y83493000D02*
X71666000Y90097000D01*
X71666000Y90097000D02*
X41694000Y90097000D01*
X8674000Y90097000D02*
X8674000Y83493000D01*
X8674000Y83493000D02*
X38646000Y83493000D01*
X38646000Y83493000D02*
X38646000Y90097000D01*
X38646000Y90097000D02*
X8674000Y90097000D01*
X23604381Y42543619D02*
X22604381Y42543619D01*
X23556762Y42972190D02*
X23604381Y43115047D01*
X23604381Y43353143D01*
X23556762Y43448381D01*
X23509143Y43496000D01*
X23413905Y43543619D01*
X23318667Y43543619D01*
X23223429Y43496000D01*
X23175810Y43448381D01*
X23128190Y43353143D01*
X23080571Y43162666D01*
X23032952Y43067428D01*
X22985333Y43019809D01*
X22890095Y42972190D01*
X22794857Y42972190D01*
X22699619Y43019809D01*
X22652000Y43067428D01*
X22604381Y43162666D01*
X22604381Y43400762D01*
X22652000Y43543619D01*
X23604381Y43972190D02*
X22604381Y43972190D01*
X22604381Y44353143D01*
X22652000Y44448381D01*
X22699619Y44496000D01*
X22794857Y44543619D01*
X22937714Y44543619D01*
X23032952Y44496000D01*
X23080571Y44448381D01*
X23128190Y44353143D01*
X23128190Y43972190D01*
X23604381Y45496000D02*
X23604381Y44924571D01*
X23604381Y45210285D02*
X22604381Y45210285D01*
X22747238Y45115047D01*
X22842476Y45019809D01*
X22890095Y44924571D01*
X14793905Y44559619D02*
X14793905Y45559619D01*
X15032000Y45559619D01*
X15174858Y45512000D01*
X15270096Y45416762D01*
X15317715Y45321524D01*
X15365334Y45131048D01*
X15365334Y44988190D01*
X15317715Y44797714D01*
X15270096Y44702476D01*
X15174858Y44607238D01*
X15032000Y44559619D01*
X14793905Y44559619D01*
X16317715Y44559619D02*
X15746286Y44559619D01*
X16032000Y44559619D02*
X16032000Y45559619D01*
X15936762Y45416762D01*
X15841524Y45321524D01*
X15746286Y45273905D01*
X35320190Y34883809D02*
X35796381Y34883809D01*
X34796381Y34550476D02*
X35320190Y34883809D01*
X34796381Y35217143D01*
X35796381Y36074286D02*
X35796381Y35502857D01*
X35796381Y35788571D02*
X34796381Y35788571D01*
X34939238Y35693333D01*
X35034476Y35598095D01*
X35082095Y35502857D01*
X8364381Y61609334D02*
X7888190Y61276000D01*
X8364381Y61037905D02*
X7364381Y61037905D01*
X7364381Y61418858D01*
X7412000Y61514096D01*
X7459619Y61561715D01*
X7554857Y61609334D01*
X7697714Y61609334D01*
X7792952Y61561715D01*
X7840571Y61514096D01*
X7888190Y61418858D01*
X7888190Y61037905D01*
X7792952Y62180762D02*
X7745333Y62085524D01*
X7697714Y62037905D01*
X7602476Y61990286D01*
X7554857Y61990286D01*
X7459619Y62037905D01*
X7412000Y62085524D01*
X7364381Y62180762D01*
X7364381Y62371239D01*
X7412000Y62466477D01*
X7459619Y62514096D01*
X7554857Y62561715D01*
X7602476Y62561715D01*
X7697714Y62514096D01*
X7745333Y62466477D01*
X7792952Y62371239D01*
X7792952Y62180762D01*
X7840571Y62085524D01*
X7888190Y62037905D01*
X7983429Y61990286D01*
X8173905Y61990286D01*
X8269143Y62037905D01*
X8316762Y62085524D01*
X8364381Y62180762D01*
X8364381Y62371239D01*
X8316762Y62466477D01*
X8269143Y62514096D01*
X8173905Y62561715D01*
X7983429Y62561715D01*
X7888190Y62514096D01*
X7840571Y62466477D01*
X7792952Y62371239D01*
X24541143Y30843619D02*
X24207809Y31319810D01*
X23969714Y30843619D02*
X23969714Y31843619D01*
X24350667Y31843619D01*
X24445905Y31796000D01*
X24493524Y31748381D01*
X24541143Y31653143D01*
X24541143Y31510286D01*
X24493524Y31415048D01*
X24445905Y31367429D01*
X24350667Y31319810D01*
X23969714Y31319810D01*
X24874476Y31843619D02*
X25493524Y31843619D01*
X25160190Y31462667D01*
X25303048Y31462667D01*
X25398286Y31415048D01*
X25445905Y31367429D01*
X25493524Y31272190D01*
X25493524Y31034095D01*
X25445905Y30938857D01*
X25398286Y30891238D01*
X25303048Y30843619D01*
X25017333Y30843619D01*
X24922095Y30891238D01*
X24874476Y30938857D01*
X26350667Y31843619D02*
X26160190Y31843619D01*
X26064952Y31796000D01*
X26017333Y31748381D01*
X25922095Y31605524D01*
X25874476Y31415048D01*
X25874476Y31034095D01*
X25922095Y30938857D01*
X25969714Y30891238D01*
X26064952Y30843619D01*
X26255429Y30843619D01*
X26350667Y30891238D01*
X26398286Y30938857D01*
X26445905Y31034095D01*
X26445905Y31272190D01*
X26398286Y31367429D01*
X26350667Y31415048D01*
X26255429Y31462667D01*
X26064952Y31462667D01*
X25969714Y31415048D01*
X25922095Y31367429D01*
X25874476Y31272190D01*
X27589143Y12555619D02*
X27255809Y13031810D01*
X27017714Y12555619D02*
X27017714Y13555619D01*
X27398667Y13555619D01*
X27493905Y13508000D01*
X27541524Y13460381D01*
X27589143Y13365143D01*
X27589143Y13222286D01*
X27541524Y13127048D01*
X27493905Y13079429D01*
X27398667Y13031810D01*
X27017714Y13031810D01*
X28446286Y13222286D02*
X28446286Y12555619D01*
X28208190Y13603238D02*
X27970095Y12888952D01*
X28589143Y12888952D01*
X28874857Y13555619D02*
X29493905Y13555619D01*
X29160571Y13174667D01*
X29303429Y13174667D01*
X29398667Y13127048D01*
X29446286Y13079429D01*
X29493905Y12984190D01*
X29493905Y12746095D01*
X29446286Y12650857D01*
X29398667Y12603238D01*
X29303429Y12555619D01*
X29017714Y12555619D01*
X28922476Y12603238D01*
X28874857Y12650857D01*
X39749334Y11031619D02*
X39416000Y11507810D01*
X39177905Y11031619D02*
X39177905Y12031619D01*
X39558858Y12031619D01*
X39654096Y11984000D01*
X39701715Y11936381D01*
X39749334Y11841143D01*
X39749334Y11698286D01*
X39701715Y11603048D01*
X39654096Y11555429D01*
X39558858Y11507810D01*
X39177905Y11507810D01*
X40701715Y11031619D02*
X40130286Y11031619D01*
X40416000Y11031619D02*
X40416000Y12031619D01*
X40320762Y11888762D01*
X40225524Y11793524D01*
X40130286Y11745905D01*
X2792381Y14278095D02*
X3601905Y14278095D01*
X3697143Y14325714D01*
X3744762Y14373333D01*
X3792381Y14468571D01*
X3792381Y14659048D01*
X3744762Y14754286D01*
X3697143Y14801905D01*
X3601905Y14849524D01*
X2792381Y14849524D01*
X3125714Y15754286D02*
X3792381Y15754286D01*
X2744762Y15516190D02*
X3459048Y15278095D01*
X3459048Y15897143D01*
X9777381Y27613095D02*
X10586905Y27613095D01*
X10682143Y27660714D01*
X10729762Y27708333D01*
X10777381Y27803571D01*
X10777381Y27994048D01*
X10729762Y28089286D01*
X10682143Y28136905D01*
X10586905Y28184524D01*
X9777381Y28184524D01*
X9777381Y28565476D02*
X9777381Y29184524D01*
X10158333Y28851190D01*
X10158333Y28994048D01*
X10205952Y29089286D01*
X10253571Y29136905D01*
X10348810Y29184524D01*
X10586905Y29184524D01*
X10682143Y29136905D01*
X10729762Y29089286D01*
X10777381Y28994048D01*
X10777381Y28708333D01*
X10729762Y28613095D01*
X10682143Y28565476D01*
X47663095Y14317619D02*
X47663095Y13508095D01*
X47710714Y13412857D01*
X47758333Y13365238D01*
X47853571Y13317619D01*
X48044048Y13317619D01*
X48139286Y13365238D01*
X48186905Y13412857D01*
X48234524Y13508095D01*
X48234524Y14317619D01*
X48663095Y14222381D02*
X48710714Y14270000D01*
X48805952Y14317619D01*
X49044048Y14317619D01*
X49139286Y14270000D01*
X49186905Y14222381D01*
X49234524Y14127143D01*
X49234524Y14031905D01*
X49186905Y13889048D01*
X48615476Y13317619D01*
X49234524Y13317619D01*
X28192381Y5134095D02*
X29001905Y5134095D01*
X29097143Y5181714D01*
X29144762Y5229333D01*
X29192381Y5324571D01*
X29192381Y5515048D01*
X29144762Y5610286D01*
X29097143Y5657905D01*
X29001905Y5705524D01*
X28192381Y5705524D01*
X29192381Y6705524D02*
X29192381Y6134095D01*
X29192381Y6419809D02*
X28192381Y6419809D01*
X28335238Y6324571D01*
X28430476Y6229333D01*
X28478095Y6134095D01*
X32669143Y15095619D02*
X32335809Y15571810D01*
X32097714Y15095619D02*
X32097714Y16095619D01*
X32478667Y16095619D01*
X32573905Y16048000D01*
X32621524Y16000381D01*
X32669143Y15905143D01*
X32669143Y15762286D01*
X32621524Y15667048D01*
X32573905Y15619429D01*
X32478667Y15571810D01*
X32097714Y15571810D01*
X33526286Y15762286D02*
X33526286Y15095619D01*
X33288190Y16143238D02*
X33050095Y15428952D01*
X33669143Y15428952D01*
X34002476Y16000381D02*
X34050095Y16048000D01*
X34145333Y16095619D01*
X34383429Y16095619D01*
X34478667Y16048000D01*
X34526286Y16000381D01*
X34573905Y15905143D01*
X34573905Y15809905D01*
X34526286Y15667048D01*
X33954857Y15095619D01*
X34573905Y15095619D01*
X32669143Y17635619D02*
X32335809Y18111810D01*
X32097714Y17635619D02*
X32097714Y18635619D01*
X32478667Y18635619D01*
X32573905Y18588000D01*
X32621524Y18540381D01*
X32669143Y18445143D01*
X32669143Y18302286D01*
X32621524Y18207048D01*
X32573905Y18159429D01*
X32478667Y18111810D01*
X32097714Y18111810D01*
X33526286Y18302286D02*
X33526286Y17635619D01*
X33288190Y18683238D02*
X33050095Y17968952D01*
X33669143Y17968952D01*
X34573905Y17635619D02*
X34002476Y17635619D01*
X34288190Y17635619D02*
X34288190Y18635619D01*
X34192952Y18492762D01*
X34097714Y18397524D01*
X34002476Y18349905D01*
X32669143Y22715619D02*
X32335809Y23191810D01*
X32097714Y22715619D02*
X32097714Y23715619D01*
X32478667Y23715619D01*
X32573905Y23668000D01*
X32621524Y23620381D01*
X32669143Y23525143D01*
X32669143Y23382286D01*
X32621524Y23287048D01*
X32573905Y23239429D01*
X32478667Y23191810D01*
X32097714Y23191810D01*
X33526286Y23382286D02*
X33526286Y22715619D01*
X33288190Y23763238D02*
X33050095Y23048952D01*
X33669143Y23048952D01*
X34240571Y23715619D02*
X34335810Y23715619D01*
X34431048Y23668000D01*
X34478667Y23620381D01*
X34526286Y23525143D01*
X34573905Y23334667D01*
X34573905Y23096571D01*
X34526286Y22906095D01*
X34478667Y22810857D01*
X34431048Y22763238D01*
X34335810Y22715619D01*
X34240571Y22715619D01*
X34145333Y22763238D01*
X34097714Y22810857D01*
X34050095Y22906095D01*
X34002476Y23096571D01*
X34002476Y23334667D01*
X34050095Y23525143D01*
X34097714Y23620381D01*
X34145333Y23668000D01*
X34240571Y23715619D01*
X32669143Y25255619D02*
X32335809Y25731810D01*
X32097714Y25255619D02*
X32097714Y26255619D01*
X32478667Y26255619D01*
X32573905Y26208000D01*
X32621524Y26160381D01*
X32669143Y26065143D01*
X32669143Y25922286D01*
X32621524Y25827048D01*
X32573905Y25779429D01*
X32478667Y25731810D01*
X32097714Y25731810D01*
X33002476Y26255619D02*
X33621524Y26255619D01*
X33288190Y25874667D01*
X33431048Y25874667D01*
X33526286Y25827048D01*
X33573905Y25779429D01*
X33621524Y25684190D01*
X33621524Y25446095D01*
X33573905Y25350857D01*
X33526286Y25303238D01*
X33431048Y25255619D01*
X33145333Y25255619D01*
X33050095Y25303238D01*
X33002476Y25350857D01*
X34097714Y25255619D02*
X34288190Y25255619D01*
X34383429Y25303238D01*
X34431048Y25350857D01*
X34526286Y25493714D01*
X34573905Y25684190D01*
X34573905Y26065143D01*
X34526286Y26160381D01*
X34478667Y26208000D01*
X34383429Y26255619D01*
X34192952Y26255619D01*
X34097714Y26208000D01*
X34050095Y26160381D01*
X34002476Y26065143D01*
X34002476Y25827048D01*
X34050095Y25731810D01*
X34097714Y25684190D01*
X34192952Y25636571D01*
X34383429Y25636571D01*
X34478667Y25684190D01*
X34526286Y25731810D01*
X34573905Y25827048D01*
X32669143Y20175619D02*
X32335809Y20651810D01*
X32097714Y20175619D02*
X32097714Y21175619D01*
X32478667Y21175619D01*
X32573905Y21128000D01*
X32621524Y21080381D01*
X32669143Y20985143D01*
X32669143Y20842286D01*
X32621524Y20747048D01*
X32573905Y20699429D01*
X32478667Y20651810D01*
X32097714Y20651810D01*
X33002476Y21175619D02*
X33621524Y21175619D01*
X33288190Y20794667D01*
X33431048Y20794667D01*
X33526286Y20747048D01*
X33573905Y20699429D01*
X33621524Y20604190D01*
X33621524Y20366095D01*
X33573905Y20270857D01*
X33526286Y20223238D01*
X33431048Y20175619D01*
X33145333Y20175619D01*
X33050095Y20223238D01*
X33002476Y20270857D01*
X34192952Y20747048D02*
X34097714Y20794667D01*
X34050095Y20842286D01*
X34002476Y20937524D01*
X34002476Y20985143D01*
X34050095Y21080381D01*
X34097714Y21128000D01*
X34192952Y21175619D01*
X34383429Y21175619D01*
X34478667Y21128000D01*
X34526286Y21080381D01*
X34573905Y20985143D01*
X34573905Y20937524D01*
X34526286Y20842286D01*
X34478667Y20794667D01*
X34383429Y20747048D01*
X34192952Y20747048D01*
X34097714Y20699429D01*
X34050095Y20651810D01*
X34002476Y20556571D01*
X34002476Y20366095D01*
X34050095Y20270857D01*
X34097714Y20223238D01*
X34192952Y20175619D01*
X34383429Y20175619D01*
X34478667Y20223238D01*
X34526286Y20270857D01*
X34573905Y20366095D01*
X34573905Y20556571D01*
X34526286Y20651810D01*
X34478667Y20699429D01*
X34383429Y20747048D01*
X32669143Y27795619D02*
X32335809Y28271810D01*
X32097714Y27795619D02*
X32097714Y28795619D01*
X32478667Y28795619D01*
X32573905Y28748000D01*
X32621524Y28700381D01*
X32669143Y28605143D01*
X32669143Y28462286D01*
X32621524Y28367048D01*
X32573905Y28319429D01*
X32478667Y28271810D01*
X32097714Y28271810D01*
X33002476Y28795619D02*
X33621524Y28795619D01*
X33288190Y28414667D01*
X33431048Y28414667D01*
X33526286Y28367048D01*
X33573905Y28319429D01*
X33621524Y28224190D01*
X33621524Y27986095D01*
X33573905Y27890857D01*
X33526286Y27843238D01*
X33431048Y27795619D01*
X33145333Y27795619D01*
X33050095Y27843238D01*
X33002476Y27890857D01*
X33954857Y28795619D02*
X34621524Y28795619D01*
X34192952Y27795619D01*
X63657143Y37447619D02*
X63323809Y37923810D01*
X63085714Y37447619D02*
X63085714Y38447619D01*
X63466667Y38447619D01*
X63561905Y38400000D01*
X63609524Y38352381D01*
X63657143Y38257143D01*
X63657143Y38114286D01*
X63609524Y38019048D01*
X63561905Y37971429D01*
X63466667Y37923810D01*
X63085714Y37923810D01*
X63990476Y38447619D02*
X64609524Y38447619D01*
X64276190Y38066667D01*
X64419048Y38066667D01*
X64514286Y38019048D01*
X64561905Y37971429D01*
X64609524Y37876190D01*
X64609524Y37638095D01*
X64561905Y37542857D01*
X64514286Y37495238D01*
X64419048Y37447619D01*
X64133333Y37447619D01*
X64038095Y37495238D01*
X63990476Y37542857D01*
X65514286Y38447619D02*
X65038095Y38447619D01*
X64990476Y37971429D01*
X65038095Y38019048D01*
X65133333Y38066667D01*
X65371429Y38066667D01*
X65466667Y38019048D01*
X65514286Y37971429D01*
X65561905Y37876190D01*
X65561905Y37638095D01*
X65514286Y37542857D01*
X65466667Y37495238D01*
X65371429Y37447619D01*
X65133333Y37447619D01*
X65038095Y37495238D01*
X64990476Y37542857D01*
X63657143Y34907619D02*
X63323809Y35383810D01*
X63085714Y34907619D02*
X63085714Y35907619D01*
X63466667Y35907619D01*
X63561905Y35860000D01*
X63609524Y35812381D01*
X63657143Y35717143D01*
X63657143Y35574286D01*
X63609524Y35479048D01*
X63561905Y35431429D01*
X63466667Y35383810D01*
X63085714Y35383810D01*
X63990476Y35907619D02*
X64609524Y35907619D01*
X64276190Y35526667D01*
X64419048Y35526667D01*
X64514286Y35479048D01*
X64561905Y35431429D01*
X64609524Y35336190D01*
X64609524Y35098095D01*
X64561905Y35002857D01*
X64514286Y34955238D01*
X64419048Y34907619D01*
X64133333Y34907619D01*
X64038095Y34955238D01*
X63990476Y35002857D01*
X65466667Y35574286D02*
X65466667Y34907619D01*
X65228571Y35955238D02*
X64990476Y35240952D01*
X65609524Y35240952D01*
X63657143Y32367619D02*
X63323809Y32843810D01*
X63085714Y32367619D02*
X63085714Y33367619D01*
X63466667Y33367619D01*
X63561905Y33320000D01*
X63609524Y33272381D01*
X63657143Y33177143D01*
X63657143Y33034286D01*
X63609524Y32939048D01*
X63561905Y32891429D01*
X63466667Y32843810D01*
X63085714Y32843810D01*
X63990476Y33367619D02*
X64609524Y33367619D01*
X64276190Y32986667D01*
X64419048Y32986667D01*
X64514286Y32939048D01*
X64561905Y32891429D01*
X64609524Y32796190D01*
X64609524Y32558095D01*
X64561905Y32462857D01*
X64514286Y32415238D01*
X64419048Y32367619D01*
X64133333Y32367619D01*
X64038095Y32415238D01*
X63990476Y32462857D01*
X64942857Y33367619D02*
X65561905Y33367619D01*
X65228571Y32986667D01*
X65371429Y32986667D01*
X65466667Y32939048D01*
X65514286Y32891429D01*
X65561905Y32796190D01*
X65561905Y32558095D01*
X65514286Y32462857D01*
X65466667Y32415238D01*
X65371429Y32367619D01*
X65085714Y32367619D01*
X64990476Y32415238D01*
X64942857Y32462857D01*
X63657143Y29827619D02*
X63323809Y30303810D01*
X63085714Y29827619D02*
X63085714Y30827619D01*
X63466667Y30827619D01*
X63561905Y30780000D01*
X63609524Y30732381D01*
X63657143Y30637143D01*
X63657143Y30494286D01*
X63609524Y30399048D01*
X63561905Y30351429D01*
X63466667Y30303810D01*
X63085714Y30303810D01*
X63990476Y30827619D02*
X64609524Y30827619D01*
X64276190Y30446667D01*
X64419048Y30446667D01*
X64514286Y30399048D01*
X64561905Y30351429D01*
X64609524Y30256190D01*
X64609524Y30018095D01*
X64561905Y29922857D01*
X64514286Y29875238D01*
X64419048Y29827619D01*
X64133333Y29827619D01*
X64038095Y29875238D01*
X63990476Y29922857D01*
X64990476Y30732381D02*
X65038095Y30780000D01*
X65133333Y30827619D01*
X65371429Y30827619D01*
X65466667Y30780000D01*
X65514286Y30732381D01*
X65561905Y30637143D01*
X65561905Y30541905D01*
X65514286Y30399048D01*
X64942857Y29827619D01*
X65561905Y29827619D01*
X63657143Y27287619D02*
X63323809Y27763810D01*
X63085714Y27287619D02*
X63085714Y28287619D01*
X63466667Y28287619D01*
X63561905Y28240000D01*
X63609524Y28192381D01*
X63657143Y28097143D01*
X63657143Y27954286D01*
X63609524Y27859048D01*
X63561905Y27811429D01*
X63466667Y27763810D01*
X63085714Y27763810D01*
X63990476Y28287619D02*
X64609524Y28287619D01*
X64276190Y27906667D01*
X64419048Y27906667D01*
X64514286Y27859048D01*
X64561905Y27811429D01*
X64609524Y27716190D01*
X64609524Y27478095D01*
X64561905Y27382857D01*
X64514286Y27335238D01*
X64419048Y27287619D01*
X64133333Y27287619D01*
X64038095Y27335238D01*
X63990476Y27382857D01*
X65561905Y27287619D02*
X64990476Y27287619D01*
X65276190Y27287619D02*
X65276190Y28287619D01*
X65180952Y28144762D01*
X65085714Y28049524D01*
X64990476Y28001905D01*
X63657143Y24747619D02*
X63323809Y25223810D01*
X63085714Y24747619D02*
X63085714Y25747619D01*
X63466667Y25747619D01*
X63561905Y25700000D01*
X63609524Y25652381D01*
X63657143Y25557143D01*
X63657143Y25414286D01*
X63609524Y25319048D01*
X63561905Y25271429D01*
X63466667Y25223810D01*
X63085714Y25223810D01*
X63990476Y25747619D02*
X64609524Y25747619D01*
X64276190Y25366667D01*
X64419048Y25366667D01*
X64514286Y25319048D01*
X64561905Y25271429D01*
X64609524Y25176190D01*
X64609524Y24938095D01*
X64561905Y24842857D01*
X64514286Y24795238D01*
X64419048Y24747619D01*
X64133333Y24747619D01*
X64038095Y24795238D01*
X63990476Y24842857D01*
X65228571Y25747619D02*
X65323810Y25747619D01*
X65419048Y25700000D01*
X65466667Y25652381D01*
X65514286Y25557143D01*
X65561905Y25366667D01*
X65561905Y25128571D01*
X65514286Y24938095D01*
X65466667Y24842857D01*
X65419048Y24795238D01*
X65323810Y24747619D01*
X65228571Y24747619D01*
X65133333Y24795238D01*
X65085714Y24842857D01*
X65038095Y24938095D01*
X64990476Y25128571D01*
X64990476Y25366667D01*
X65038095Y25557143D01*
X65085714Y25652381D01*
X65133333Y25700000D01*
X65228571Y25747619D01*
X63657143Y22207619D02*
X63323809Y22683810D01*
X63085714Y22207619D02*
X63085714Y23207619D01*
X63466667Y23207619D01*
X63561905Y23160000D01*
X63609524Y23112381D01*
X63657143Y23017143D01*
X63657143Y22874286D01*
X63609524Y22779048D01*
X63561905Y22731429D01*
X63466667Y22683810D01*
X63085714Y22683810D01*
X64038095Y23112381D02*
X64085714Y23160000D01*
X64180952Y23207619D01*
X64419048Y23207619D01*
X64514286Y23160000D01*
X64561905Y23112381D01*
X64609524Y23017143D01*
X64609524Y22921905D01*
X64561905Y22779048D01*
X63990476Y22207619D01*
X64609524Y22207619D01*
X65085714Y22207619D02*
X65276190Y22207619D01*
X65371429Y22255238D01*
X65419048Y22302857D01*
X65514286Y22445714D01*
X65561905Y22636190D01*
X65561905Y23017143D01*
X65514286Y23112381D01*
X65466667Y23160000D01*
X65371429Y23207619D01*
X65180952Y23207619D01*
X65085714Y23160000D01*
X65038095Y23112381D01*
X64990476Y23017143D01*
X64990476Y22779048D01*
X65038095Y22683810D01*
X65085714Y22636190D01*
X65180952Y22588571D01*
X65371429Y22588571D01*
X65466667Y22636190D01*
X65514286Y22683810D01*
X65561905Y22779048D01*
X63657143Y19667619D02*
X63323809Y20143810D01*
X63085714Y19667619D02*
X63085714Y20667619D01*
X63466667Y20667619D01*
X63561905Y20620000D01*
X63609524Y20572381D01*
X63657143Y20477143D01*
X63657143Y20334286D01*
X63609524Y20239048D01*
X63561905Y20191429D01*
X63466667Y20143810D01*
X63085714Y20143810D01*
X64038095Y20572381D02*
X64085714Y20620000D01*
X64180952Y20667619D01*
X64419048Y20667619D01*
X64514286Y20620000D01*
X64561905Y20572381D01*
X64609524Y20477143D01*
X64609524Y20381905D01*
X64561905Y20239048D01*
X63990476Y19667619D01*
X64609524Y19667619D01*
X65180952Y20239048D02*
X65085714Y20286667D01*
X65038095Y20334286D01*
X64990476Y20429524D01*
X64990476Y20477143D01*
X65038095Y20572381D01*
X65085714Y20620000D01*
X65180952Y20667619D01*
X65371429Y20667619D01*
X65466667Y20620000D01*
X65514286Y20572381D01*
X65561905Y20477143D01*
X65561905Y20429524D01*
X65514286Y20334286D01*
X65466667Y20286667D01*
X65371429Y20239048D01*
X65180952Y20239048D01*
X65085714Y20191429D01*
X65038095Y20143810D01*
X64990476Y20048571D01*
X64990476Y19858095D01*
X65038095Y19762857D01*
X65085714Y19715238D01*
X65180952Y19667619D01*
X65371429Y19667619D01*
X65466667Y19715238D01*
X65514286Y19762857D01*
X65561905Y19858095D01*
X65561905Y20048571D01*
X65514286Y20143810D01*
X65466667Y20191429D01*
X65371429Y20239048D01*
X30637143Y50147619D02*
X30303809Y50623810D01*
X30065714Y50147619D02*
X30065714Y51147619D01*
X30446667Y51147619D01*
X30541905Y51100000D01*
X30589524Y51052381D01*
X30637143Y50957143D01*
X30637143Y50814286D01*
X30589524Y50719048D01*
X30541905Y50671429D01*
X30446667Y50623810D01*
X30065714Y50623810D01*
X31018095Y51052381D02*
X31065714Y51100000D01*
X31160952Y51147619D01*
X31399048Y51147619D01*
X31494286Y51100000D01*
X31541905Y51052381D01*
X31589524Y50957143D01*
X31589524Y50861905D01*
X31541905Y50719048D01*
X30970476Y50147619D01*
X31589524Y50147619D01*
X31922857Y51147619D02*
X32589524Y51147619D01*
X32160952Y50147619D01*
X30637143Y52687619D02*
X30303809Y53163810D01*
X30065714Y52687619D02*
X30065714Y53687619D01*
X30446667Y53687619D01*
X30541905Y53640000D01*
X30589524Y53592381D01*
X30637143Y53497143D01*
X30637143Y53354286D01*
X30589524Y53259048D01*
X30541905Y53211429D01*
X30446667Y53163810D01*
X30065714Y53163810D01*
X31018095Y53592381D02*
X31065714Y53640000D01*
X31160952Y53687619D01*
X31399048Y53687619D01*
X31494286Y53640000D01*
X31541905Y53592381D01*
X31589524Y53497143D01*
X31589524Y53401905D01*
X31541905Y53259048D01*
X30970476Y52687619D01*
X31589524Y52687619D01*
X32446667Y53687619D02*
X32256190Y53687619D01*
X32160952Y53640000D01*
X32113333Y53592381D01*
X32018095Y53449524D01*
X31970476Y53259048D01*
X31970476Y52878095D01*
X32018095Y52782857D01*
X32065714Y52735238D01*
X32160952Y52687619D01*
X32351429Y52687619D01*
X32446667Y52735238D01*
X32494286Y52782857D01*
X32541905Y52878095D01*
X32541905Y53116190D01*
X32494286Y53211429D01*
X32446667Y53259048D01*
X32351429Y53306667D01*
X32160952Y53306667D01*
X32065714Y53259048D01*
X32018095Y53211429D01*
X31970476Y53116190D01*
X30637143Y55227619D02*
X30303809Y55703810D01*
X30065714Y55227619D02*
X30065714Y56227619D01*
X30446667Y56227619D01*
X30541905Y56180000D01*
X30589524Y56132381D01*
X30637143Y56037143D01*
X30637143Y55894286D01*
X30589524Y55799048D01*
X30541905Y55751429D01*
X30446667Y55703810D01*
X30065714Y55703810D01*
X31018095Y56132381D02*
X31065714Y56180000D01*
X31160952Y56227619D01*
X31399048Y56227619D01*
X31494286Y56180000D01*
X31541905Y56132381D01*
X31589524Y56037143D01*
X31589524Y55941905D01*
X31541905Y55799048D01*
X30970476Y55227619D01*
X31589524Y55227619D01*
X32494286Y56227619D02*
X32018095Y56227619D01*
X31970476Y55751429D01*
X32018095Y55799048D01*
X32113333Y55846667D01*
X32351429Y55846667D01*
X32446667Y55799048D01*
X32494286Y55751429D01*
X32541905Y55656190D01*
X32541905Y55418095D01*
X32494286Y55322857D01*
X32446667Y55275238D01*
X32351429Y55227619D01*
X32113333Y55227619D01*
X32018095Y55275238D01*
X31970476Y55322857D01*
X30637143Y57767619D02*
X30303809Y58243810D01*
X30065714Y57767619D02*
X30065714Y58767619D01*
X30446667Y58767619D01*
X30541905Y58720000D01*
X30589524Y58672381D01*
X30637143Y58577143D01*
X30637143Y58434286D01*
X30589524Y58339048D01*
X30541905Y58291429D01*
X30446667Y58243810D01*
X30065714Y58243810D01*
X31018095Y58672381D02*
X31065714Y58720000D01*
X31160952Y58767619D01*
X31399048Y58767619D01*
X31494286Y58720000D01*
X31541905Y58672381D01*
X31589524Y58577143D01*
X31589524Y58481905D01*
X31541905Y58339048D01*
X30970476Y57767619D01*
X31589524Y57767619D01*
X32446667Y58434286D02*
X32446667Y57767619D01*
X32208571Y58815238D02*
X31970476Y58100952D01*
X32589524Y58100952D01*
X30637143Y60307619D02*
X30303809Y60783810D01*
X30065714Y60307619D02*
X30065714Y61307619D01*
X30446667Y61307619D01*
X30541905Y61260000D01*
X30589524Y61212381D01*
X30637143Y61117143D01*
X30637143Y60974286D01*
X30589524Y60879048D01*
X30541905Y60831429D01*
X30446667Y60783810D01*
X30065714Y60783810D01*
X31018095Y61212381D02*
X31065714Y61260000D01*
X31160952Y61307619D01*
X31399048Y61307619D01*
X31494286Y61260000D01*
X31541905Y61212381D01*
X31589524Y61117143D01*
X31589524Y61021905D01*
X31541905Y60879048D01*
X30970476Y60307619D01*
X31589524Y60307619D01*
X31922857Y61307619D02*
X32541905Y61307619D01*
X32208571Y60926667D01*
X32351429Y60926667D01*
X32446667Y60879048D01*
X32494286Y60831429D01*
X32541905Y60736190D01*
X32541905Y60498095D01*
X32494286Y60402857D01*
X32446667Y60355238D01*
X32351429Y60307619D01*
X32065714Y60307619D01*
X31970476Y60355238D01*
X31922857Y60402857D01*
X30637143Y62847619D02*
X30303809Y63323810D01*
X30065714Y62847619D02*
X30065714Y63847619D01*
X30446667Y63847619D01*
X30541905Y63800000D01*
X30589524Y63752381D01*
X30637143Y63657143D01*
X30637143Y63514286D01*
X30589524Y63419048D01*
X30541905Y63371429D01*
X30446667Y63323810D01*
X30065714Y63323810D01*
X31018095Y63752381D02*
X31065714Y63800000D01*
X31160952Y63847619D01*
X31399048Y63847619D01*
X31494286Y63800000D01*
X31541905Y63752381D01*
X31589524Y63657143D01*
X31589524Y63561905D01*
X31541905Y63419048D01*
X30970476Y62847619D01*
X31589524Y62847619D01*
X31970476Y63752381D02*
X32018095Y63800000D01*
X32113333Y63847619D01*
X32351429Y63847619D01*
X32446667Y63800000D01*
X32494286Y63752381D01*
X32541905Y63657143D01*
X32541905Y63561905D01*
X32494286Y63419048D01*
X31922857Y62847619D01*
X32541905Y62847619D01*
X30637143Y65387619D02*
X30303809Y65863810D01*
X30065714Y65387619D02*
X30065714Y66387619D01*
X30446667Y66387619D01*
X30541905Y66340000D01*
X30589524Y66292381D01*
X30637143Y66197143D01*
X30637143Y66054286D01*
X30589524Y65959048D01*
X30541905Y65911429D01*
X30446667Y65863810D01*
X30065714Y65863810D01*
X31018095Y66292381D02*
X31065714Y66340000D01*
X31160952Y66387619D01*
X31399048Y66387619D01*
X31494286Y66340000D01*
X31541905Y66292381D01*
X31589524Y66197143D01*
X31589524Y66101905D01*
X31541905Y65959048D01*
X30970476Y65387619D01*
X31589524Y65387619D01*
X32541905Y65387619D02*
X31970476Y65387619D01*
X32256190Y65387619D02*
X32256190Y66387619D01*
X32160952Y66244762D01*
X32065714Y66149524D01*
X31970476Y66101905D01*
X30637143Y67927619D02*
X30303809Y68403810D01*
X30065714Y67927619D02*
X30065714Y68927619D01*
X30446667Y68927619D01*
X30541905Y68880000D01*
X30589524Y68832381D01*
X30637143Y68737143D01*
X30637143Y68594286D01*
X30589524Y68499048D01*
X30541905Y68451429D01*
X30446667Y68403810D01*
X30065714Y68403810D01*
X31018095Y68832381D02*
X31065714Y68880000D01*
X31160952Y68927619D01*
X31399048Y68927619D01*
X31494286Y68880000D01*
X31541905Y68832381D01*
X31589524Y68737143D01*
X31589524Y68641905D01*
X31541905Y68499048D01*
X30970476Y67927619D01*
X31589524Y67927619D01*
X32208571Y68927619D02*
X32303810Y68927619D01*
X32399048Y68880000D01*
X32446667Y68832381D01*
X32494286Y68737143D01*
X32541905Y68546667D01*
X32541905Y68308571D01*
X32494286Y68118095D01*
X32446667Y68022857D01*
X32399048Y67975238D01*
X32303810Y67927619D01*
X32208571Y67927619D01*
X32113333Y67975238D01*
X32065714Y68022857D01*
X32018095Y68118095D01*
X31970476Y68308571D01*
X31970476Y68546667D01*
X32018095Y68737143D01*
X32065714Y68832381D01*
X32113333Y68880000D01*
X32208571Y68927619D01*
X63657143Y47607619D02*
X63323809Y48083810D01*
X63085714Y47607619D02*
X63085714Y48607619D01*
X63466667Y48607619D01*
X63561905Y48560000D01*
X63609524Y48512381D01*
X63657143Y48417143D01*
X63657143Y48274286D01*
X63609524Y48179048D01*
X63561905Y48131429D01*
X63466667Y48083810D01*
X63085714Y48083810D01*
X64609524Y47607619D02*
X64038095Y47607619D01*
X64323809Y47607619D02*
X64323809Y48607619D01*
X64228571Y48464762D01*
X64133333Y48369524D01*
X64038095Y48321905D01*
X65085714Y47607619D02*
X65276190Y47607619D01*
X65371429Y47655238D01*
X65419048Y47702857D01*
X65514286Y47845714D01*
X65561905Y48036190D01*
X65561905Y48417143D01*
X65514286Y48512381D01*
X65466667Y48560000D01*
X65371429Y48607619D01*
X65180952Y48607619D01*
X65085714Y48560000D01*
X65038095Y48512381D01*
X64990476Y48417143D01*
X64990476Y48179048D01*
X65038095Y48083810D01*
X65085714Y48036190D01*
X65180952Y47988571D01*
X65371429Y47988571D01*
X65466667Y48036190D01*
X65514286Y48083810D01*
X65561905Y48179048D01*
X63657143Y50147619D02*
X63323809Y50623810D01*
X63085714Y50147619D02*
X63085714Y51147619D01*
X63466667Y51147619D01*
X63561905Y51100000D01*
X63609524Y51052381D01*
X63657143Y50957143D01*
X63657143Y50814286D01*
X63609524Y50719048D01*
X63561905Y50671429D01*
X63466667Y50623810D01*
X63085714Y50623810D01*
X64609524Y50147619D02*
X64038095Y50147619D01*
X64323809Y50147619D02*
X64323809Y51147619D01*
X64228571Y51004762D01*
X64133333Y50909524D01*
X64038095Y50861905D01*
X65180952Y50719048D02*
X65085714Y50766667D01*
X65038095Y50814286D01*
X64990476Y50909524D01*
X64990476Y50957143D01*
X65038095Y51052381D01*
X65085714Y51100000D01*
X65180952Y51147619D01*
X65371429Y51147619D01*
X65466667Y51100000D01*
X65514286Y51052381D01*
X65561905Y50957143D01*
X65561905Y50909524D01*
X65514286Y50814286D01*
X65466667Y50766667D01*
X65371429Y50719048D01*
X65180952Y50719048D01*
X65085714Y50671429D01*
X65038095Y50623810D01*
X64990476Y50528571D01*
X64990476Y50338095D01*
X65038095Y50242857D01*
X65085714Y50195238D01*
X65180952Y50147619D01*
X65371429Y50147619D01*
X65466667Y50195238D01*
X65514286Y50242857D01*
X65561905Y50338095D01*
X65561905Y50528571D01*
X65514286Y50623810D01*
X65466667Y50671429D01*
X65371429Y50719048D01*
X63657143Y52687619D02*
X63323809Y53163810D01*
X63085714Y52687619D02*
X63085714Y53687619D01*
X63466667Y53687619D01*
X63561905Y53640000D01*
X63609524Y53592381D01*
X63657143Y53497143D01*
X63657143Y53354286D01*
X63609524Y53259048D01*
X63561905Y53211429D01*
X63466667Y53163810D01*
X63085714Y53163810D01*
X64609524Y52687619D02*
X64038095Y52687619D01*
X64323809Y52687619D02*
X64323809Y53687619D01*
X64228571Y53544762D01*
X64133333Y53449524D01*
X64038095Y53401905D01*
X64942857Y53687619D02*
X65609524Y53687619D01*
X65180952Y52687619D01*
X63657143Y55227619D02*
X63323809Y55703810D01*
X63085714Y55227619D02*
X63085714Y56227619D01*
X63466667Y56227619D01*
X63561905Y56180000D01*
X63609524Y56132381D01*
X63657143Y56037143D01*
X63657143Y55894286D01*
X63609524Y55799048D01*
X63561905Y55751429D01*
X63466667Y55703810D01*
X63085714Y55703810D01*
X64609524Y55227619D02*
X64038095Y55227619D01*
X64323809Y55227619D02*
X64323809Y56227619D01*
X64228571Y56084762D01*
X64133333Y55989524D01*
X64038095Y55941905D01*
X65466667Y56227619D02*
X65276190Y56227619D01*
X65180952Y56180000D01*
X65133333Y56132381D01*
X65038095Y55989524D01*
X64990476Y55799048D01*
X64990476Y55418095D01*
X65038095Y55322857D01*
X65085714Y55275238D01*
X65180952Y55227619D01*
X65371429Y55227619D01*
X65466667Y55275238D01*
X65514286Y55322857D01*
X65561905Y55418095D01*
X65561905Y55656190D01*
X65514286Y55751429D01*
X65466667Y55799048D01*
X65371429Y55846667D01*
X65180952Y55846667D01*
X65085714Y55799048D01*
X65038095Y55751429D01*
X64990476Y55656190D01*
X63657143Y57767619D02*
X63323809Y58243810D01*
X63085714Y57767619D02*
X63085714Y58767619D01*
X63466667Y58767619D01*
X63561905Y58720000D01*
X63609524Y58672381D01*
X63657143Y58577143D01*
X63657143Y58434286D01*
X63609524Y58339048D01*
X63561905Y58291429D01*
X63466667Y58243810D01*
X63085714Y58243810D01*
X64609524Y57767619D02*
X64038095Y57767619D01*
X64323809Y57767619D02*
X64323809Y58767619D01*
X64228571Y58624762D01*
X64133333Y58529524D01*
X64038095Y58481905D01*
X65514286Y58767619D02*
X65038095Y58767619D01*
X64990476Y58291429D01*
X65038095Y58339048D01*
X65133333Y58386667D01*
X65371429Y58386667D01*
X65466667Y58339048D01*
X65514286Y58291429D01*
X65561905Y58196190D01*
X65561905Y57958095D01*
X65514286Y57862857D01*
X65466667Y57815238D01*
X65371429Y57767619D01*
X65133333Y57767619D01*
X65038095Y57815238D01*
X64990476Y57862857D01*
X63657143Y60307619D02*
X63323809Y60783810D01*
X63085714Y60307619D02*
X63085714Y61307619D01*
X63466667Y61307619D01*
X63561905Y61260000D01*
X63609524Y61212381D01*
X63657143Y61117143D01*
X63657143Y60974286D01*
X63609524Y60879048D01*
X63561905Y60831429D01*
X63466667Y60783810D01*
X63085714Y60783810D01*
X64609524Y60307619D02*
X64038095Y60307619D01*
X64323809Y60307619D02*
X64323809Y61307619D01*
X64228571Y61164762D01*
X64133333Y61069524D01*
X64038095Y61021905D01*
X65466667Y60974286D02*
X65466667Y60307619D01*
X65228571Y61355238D02*
X64990476Y60640952D01*
X65609524Y60640952D01*
X63657143Y62847619D02*
X63323809Y63323810D01*
X63085714Y62847619D02*
X63085714Y63847619D01*
X63466667Y63847619D01*
X63561905Y63800000D01*
X63609524Y63752381D01*
X63657143Y63657143D01*
X63657143Y63514286D01*
X63609524Y63419048D01*
X63561905Y63371429D01*
X63466667Y63323810D01*
X63085714Y63323810D01*
X64609524Y62847619D02*
X64038095Y62847619D01*
X64323809Y62847619D02*
X64323809Y63847619D01*
X64228571Y63704762D01*
X64133333Y63609524D01*
X64038095Y63561905D01*
X64942857Y63847619D02*
X65561905Y63847619D01*
X65228571Y63466667D01*
X65371429Y63466667D01*
X65466667Y63419048D01*
X65514286Y63371429D01*
X65561905Y63276190D01*
X65561905Y63038095D01*
X65514286Y62942857D01*
X65466667Y62895238D01*
X65371429Y62847619D01*
X65085714Y62847619D01*
X64990476Y62895238D01*
X64942857Y62942857D01*
X63657143Y65387619D02*
X63323809Y65863810D01*
X63085714Y65387619D02*
X63085714Y66387619D01*
X63466667Y66387619D01*
X63561905Y66340000D01*
X63609524Y66292381D01*
X63657143Y66197143D01*
X63657143Y66054286D01*
X63609524Y65959048D01*
X63561905Y65911429D01*
X63466667Y65863810D01*
X63085714Y65863810D01*
X64609524Y65387619D02*
X64038095Y65387619D01*
X64323809Y65387619D02*
X64323809Y66387619D01*
X64228571Y66244762D01*
X64133333Y66149524D01*
X64038095Y66101905D01*
X64990476Y66292381D02*
X65038095Y66340000D01*
X65133333Y66387619D01*
X65371429Y66387619D01*
X65466667Y66340000D01*
X65514286Y66292381D01*
X65561905Y66197143D01*
X65561905Y66101905D01*
X65514286Y65959048D01*
X64942857Y65387619D01*
X65561905Y65387619D01*
X65562143Y44432619D02*
X65228809Y44908810D01*
X64990714Y44432619D02*
X64990714Y45432619D01*
X65371667Y45432619D01*
X65466905Y45385000D01*
X65514524Y45337381D01*
X65562143Y45242143D01*
X65562143Y45099286D01*
X65514524Y45004048D01*
X65466905Y44956429D01*
X65371667Y44908810D01*
X64990714Y44908810D01*
X66514524Y44432619D02*
X65943095Y44432619D01*
X66228809Y44432619D02*
X66228809Y45432619D01*
X66133571Y45289762D01*
X66038333Y45194524D01*
X65943095Y45146905D01*
X67466905Y44432619D02*
X66895476Y44432619D01*
X67181190Y44432619D02*
X67181190Y45432619D01*
X67085952Y45289762D01*
X66990714Y45194524D01*
X66895476Y45146905D01*
X65562143Y40622619D02*
X65228809Y41098810D01*
X64990714Y40622619D02*
X64990714Y41622619D01*
X65371667Y41622619D01*
X65466905Y41575000D01*
X65514524Y41527381D01*
X65562143Y41432143D01*
X65562143Y41289286D01*
X65514524Y41194048D01*
X65466905Y41146429D01*
X65371667Y41098810D01*
X64990714Y41098810D01*
X66514524Y40622619D02*
X65943095Y40622619D01*
X66228809Y40622619D02*
X66228809Y41622619D01*
X66133571Y41479762D01*
X66038333Y41384524D01*
X65943095Y41336905D01*
X67133571Y41622619D02*
X67228810Y41622619D01*
X67324048Y41575000D01*
X67371667Y41527381D01*
X67419286Y41432143D01*
X67466905Y41241667D01*
X67466905Y41003571D01*
X67419286Y40813095D01*
X67371667Y40717857D01*
X67324048Y40670238D01*
X67228810Y40622619D01*
X67133571Y40622619D01*
X67038333Y40670238D01*
X66990714Y40717857D01*
X66943095Y40813095D01*
X66895476Y41003571D01*
X66895476Y41241667D01*
X66943095Y41432143D01*
X66990714Y41527381D01*
X67038333Y41575000D01*
X67133571Y41622619D01*
X31113334Y47607619D02*
X30780000Y48083810D01*
X30541905Y47607619D02*
X30541905Y48607619D01*
X30922858Y48607619D01*
X31018096Y48560000D01*
X31065715Y48512381D01*
X31113334Y48417143D01*
X31113334Y48274286D01*
X31065715Y48179048D01*
X31018096Y48131429D01*
X30922858Y48083810D01*
X30541905Y48083810D01*
X31589524Y47607619D02*
X31780000Y47607619D01*
X31875239Y47655238D01*
X31922858Y47702857D01*
X32018096Y47845714D01*
X32065715Y48036190D01*
X32065715Y48417143D01*
X32018096Y48512381D01*
X31970477Y48560000D01*
X31875239Y48607619D01*
X31684762Y48607619D01*
X31589524Y48560000D01*
X31541905Y48512381D01*
X31494286Y48417143D01*
X31494286Y48179048D01*
X31541905Y48083810D01*
X31589524Y48036190D01*
X31684762Y47988571D01*
X31875239Y47988571D01*
X31970477Y48036190D01*
X32018096Y48083810D01*
X32065715Y48179048D01*
X72372381Y11825334D02*
X71896190Y11492000D01*
X72372381Y11253905D02*
X71372381Y11253905D01*
X71372381Y11634858D01*
X71420000Y11730096D01*
X71467619Y11777715D01*
X71562857Y11825334D01*
X71705714Y11825334D01*
X71800952Y11777715D01*
X71848571Y11730096D01*
X71896190Y11634858D01*
X71896190Y11253905D01*
X71372381Y12730096D02*
X71372381Y12253905D01*
X71848571Y12206286D01*
X71800952Y12253905D01*
X71753333Y12349143D01*
X71753333Y12587239D01*
X71800952Y12682477D01*
X71848571Y12730096D01*
X71943810Y12777715D01*
X72181905Y12777715D01*
X72277143Y12730096D01*
X72324762Y12682477D01*
X72372381Y12587239D01*
X72372381Y12349143D01*
X72324762Y12253905D01*
X72277143Y12206286D01*
X75547381Y14873334D02*
X75071190Y14540000D01*
X75547381Y14301905D02*
X74547381Y14301905D01*
X74547381Y14682858D01*
X74595000Y14778096D01*
X74642619Y14825715D01*
X74737857Y14873334D01*
X74880714Y14873334D01*
X74975952Y14825715D01*
X75023571Y14778096D01*
X75071190Y14682858D01*
X75071190Y14301905D01*
X74880714Y15730477D02*
X75547381Y15730477D01*
X74499762Y15492381D02*
X75214048Y15254286D01*
X75214048Y15873334D01*
X59672381Y9793334D02*
X59196190Y9460000D01*
X59672381Y9221905D02*
X58672381Y9221905D01*
X58672381Y9602858D01*
X58720000Y9698096D01*
X58767619Y9745715D01*
X58862857Y9793334D01*
X59005714Y9793334D01*
X59100952Y9745715D01*
X59148571Y9698096D01*
X59196190Y9602858D01*
X59196190Y9221905D01*
X58672381Y10126667D02*
X58672381Y10745715D01*
X59053333Y10412381D01*
X59053333Y10555239D01*
X59100952Y10650477D01*
X59148571Y10698096D01*
X59243810Y10745715D01*
X59481905Y10745715D01*
X59577143Y10698096D01*
X59624762Y10650477D01*
X59672381Y10555239D01*
X59672381Y10269524D01*
X59624762Y10174286D01*
X59577143Y10126667D01*
X55862381Y7253334D02*
X55386190Y6920000D01*
X55862381Y6681905D02*
X54862381Y6681905D01*
X54862381Y7062858D01*
X54910000Y7158096D01*
X54957619Y7205715D01*
X55052857Y7253334D01*
X55195714Y7253334D01*
X55290952Y7205715D01*
X55338571Y7158096D01*
X55386190Y7062858D01*
X55386190Y6681905D01*
X54957619Y7634286D02*
X54910000Y7681905D01*
X54862381Y7777143D01*
X54862381Y8015239D01*
X54910000Y8110477D01*
X54957619Y8158096D01*
X55052857Y8205715D01*
X55148095Y8205715D01*
X55290952Y8158096D01*
X55862381Y7586667D01*
X55862381Y8205715D01*
X1554476Y37447619D02*
X1554476Y38447619D01*
X1935429Y38447619D01*
X2030667Y38400000D01*
X2078286Y38352381D01*
X2125905Y38257143D01*
X2125905Y38114286D01*
X2078286Y38019048D01*
X2030667Y37971429D01*
X1935429Y37923810D01*
X1554476Y37923810D01*
X2459238Y38447619D02*
X2697333Y37447619D01*
X2887810Y38161905D01*
X3078286Y37447619D01*
X3316381Y38447619D01*
X4268762Y37447619D02*
X3935428Y37923810D01*
X3697333Y37447619D02*
X3697333Y38447619D01*
X4078286Y38447619D01*
X4173524Y38400000D01*
X4221143Y38352381D01*
X4268762Y38257143D01*
X4268762Y38114286D01*
X4221143Y38019048D01*
X4173524Y37971429D01*
X4078286Y37923810D01*
X3697333Y37923810D01*
X5030667Y37971429D02*
X5173524Y37923810D01*
X5221143Y37876190D01*
X5268762Y37780952D01*
X5268762Y37638095D01*
X5221143Y37542857D01*
X5173524Y37495238D01*
X5078286Y37447619D01*
X4697333Y37447619D01*
X4697333Y38447619D01*
X5030667Y38447619D01*
X5125905Y38400000D01*
X5173524Y38352381D01*
X5221143Y38257143D01*
X5221143Y38161905D01*
X5173524Y38066667D01*
X5125905Y38019048D01*
X5030667Y37971429D01*
X4697333Y37971429D01*
X5697333Y38447619D02*
X5697333Y37638095D01*
X5744952Y37542857D01*
X5792571Y37495238D01*
X5887809Y37447619D01*
X6078286Y37447619D01*
X6173524Y37495238D01*
X6221143Y37542857D01*
X6268762Y37638095D01*
X6268762Y38447619D01*
X6697333Y37495238D02*
X6840190Y37447619D01*
X7078286Y37447619D01*
X7173524Y37495238D01*
X7221143Y37542857D01*
X7268762Y37638095D01*
X7268762Y37733333D01*
X7221143Y37828571D01*
X7173524Y37876190D01*
X7078286Y37923810D01*
X6887809Y37971429D01*
X6792571Y38019048D01*
X6744952Y38066667D01*
X6697333Y38161905D01*
X6697333Y38257143D01*
X6744952Y38352381D01*
X6792571Y38400000D01*
X6887809Y38447619D01*
X7125905Y38447619D01*
X7268762Y38400000D01*
X8221143Y37447619D02*
X7649714Y37447619D01*
X7935428Y37447619D02*
X7935428Y38447619D01*
X7840190Y38304762D01*
X7744952Y38209524D01*
X7649714Y38161905D01*
X6229476Y58910619D02*
X6229476Y59910619D01*
X6610429Y59910619D01*
X6705667Y59863000D01*
X6753286Y59815381D01*
X6800905Y59720143D01*
X6800905Y59577286D01*
X6753286Y59482048D01*
X6705667Y59434429D01*
X6610429Y59386810D01*
X6229476Y59386810D01*
X7134238Y59910619D02*
X7372333Y58910619D01*
X7562810Y59624905D01*
X7753286Y58910619D01*
X7991381Y59910619D01*
X8943762Y58910619D02*
X8610428Y59386810D01*
X8372333Y58910619D02*
X8372333Y59910619D01*
X8753286Y59910619D01*
X8848524Y59863000D01*
X8896143Y59815381D01*
X8943762Y59720143D01*
X8943762Y59577286D01*
X8896143Y59482048D01*
X8848524Y59434429D01*
X8753286Y59386810D01*
X8372333Y59386810D01*
X9896143Y58910619D02*
X9324714Y58910619D01*
X9610428Y58910619D02*
X9610428Y59910619D01*
X9515190Y59767762D01*
X9419952Y59672524D01*
X9324714Y59624905D01*
X20897905Y33383619D02*
X20897905Y34383619D01*
X21278858Y34383619D01*
X21374096Y34336000D01*
X21421715Y34288381D01*
X21469334Y34193143D01*
X21469334Y34050286D01*
X21421715Y33955048D01*
X21374096Y33907429D01*
X21278858Y33859810D01*
X20897905Y33859810D01*
X21897905Y33383619D02*
X21897905Y34383619D01*
X22136000Y34383619D01*
X22278858Y34336000D01*
X22374096Y34240762D01*
X22421715Y34145524D01*
X22469334Y33955048D01*
X22469334Y33812190D01*
X22421715Y33621714D01*
X22374096Y33526476D01*
X22278858Y33431238D01*
X22136000Y33383619D01*
X21897905Y33383619D01*
X23421715Y33383619D02*
X22850286Y33383619D01*
X23136000Y33383619D02*
X23136000Y34383619D01*
X23040762Y34240762D01*
X22945524Y34145524D01*
X22850286Y34097905D01*
X74491905Y36812619D02*
X74491905Y37812619D01*
X74872858Y37812619D01*
X74968096Y37765000D01*
X75015715Y37717381D01*
X75063334Y37622143D01*
X75063334Y37479286D01*
X75015715Y37384048D01*
X74968096Y37336429D01*
X74872858Y37288810D01*
X74491905Y37288810D01*
X76063334Y36907857D02*
X76015715Y36860238D01*
X75872858Y36812619D01*
X75777620Y36812619D01*
X75634762Y36860238D01*
X75539524Y36955476D01*
X75491905Y37050714D01*
X75444286Y37241190D01*
X75444286Y37384048D01*
X75491905Y37574524D01*
X75539524Y37669762D01*
X75634762Y37765000D01*
X75777620Y37812619D01*
X75872858Y37812619D01*
X76015715Y37765000D01*
X76063334Y37717381D01*
X77015715Y36812619D02*
X76444286Y36812619D01*
X76730000Y36812619D02*
X76730000Y37812619D01*
X76634762Y37669762D01*
X76539524Y37574524D01*
X76444286Y37526905D01*
X17976905Y70467619D02*
X17976905Y71467619D01*
X18357858Y71467619D01*
X18453096Y71420000D01*
X18500715Y71372381D01*
X18548334Y71277143D01*
X18548334Y71134286D01*
X18500715Y71039048D01*
X18453096Y70991429D01*
X18357858Y70943810D01*
X17976905Y70943810D01*
X19310239Y70991429D02*
X19453096Y70943810D01*
X19500715Y70896190D01*
X19548334Y70800952D01*
X19548334Y70658095D01*
X19500715Y70562857D01*
X19453096Y70515238D01*
X19357858Y70467619D01*
X18976905Y70467619D01*
X18976905Y71467619D01*
X19310239Y71467619D01*
X19405477Y71420000D01*
X19453096Y71372381D01*
X19500715Y71277143D01*
X19500715Y71181905D01*
X19453096Y71086667D01*
X19405477Y71039048D01*
X19310239Y70991429D01*
X18976905Y70991429D01*
X20500715Y70467619D02*
X19929286Y70467619D01*
X20215000Y70467619D02*
X20215000Y71467619D01*
X20119762Y71324762D01*
X20024524Y71229524D01*
X19929286Y71181905D01*
X73293333Y65387619D02*
X73293333Y66387619D01*
X73674286Y66387619D01*
X73769524Y66340000D01*
X73817143Y66292381D01*
X73864762Y66197143D01*
X73864762Y66054286D01*
X73817143Y65959048D01*
X73769524Y65911429D01*
X73674286Y65863810D01*
X73293333Y65863810D01*
X74245714Y65673333D02*
X74721905Y65673333D01*
X74150476Y65387619D02*
X74483809Y66387619D01*
X74817143Y65387619D01*
X75674286Y65387619D02*
X75102857Y65387619D01*
X75388571Y65387619D02*
X75388571Y66387619D01*
X75293333Y66244762D01*
X75198095Y66149524D01*
X75102857Y66101905D01*
X74991905Y48877619D02*
X74991905Y49877619D01*
X75372858Y49877619D01*
X75468096Y49830000D01*
X75515715Y49782381D01*
X75563334Y49687143D01*
X75563334Y49544286D01*
X75515715Y49449048D01*
X75468096Y49401429D01*
X75372858Y49353810D01*
X74991905Y49353810D01*
X75896667Y49877619D02*
X76515715Y49877619D01*
X76182381Y49496667D01*
X76325239Y49496667D01*
X76420477Y49449048D01*
X76468096Y49401429D01*
X76515715Y49306190D01*
X76515715Y49068095D01*
X76468096Y48972857D01*
X76420477Y48925238D01*
X76325239Y48877619D01*
X76039524Y48877619D01*
X75944286Y48925238D01*
X75896667Y48972857D01*
X11237905Y3919619D02*
X11237905Y4919619D01*
X11618858Y4919619D01*
X11714096Y4872000D01*
X11761715Y4824381D01*
X11809334Y4729143D01*
X11809334Y4586286D01*
X11761715Y4491048D01*
X11714096Y4443429D01*
X11618858Y4395810D01*
X11237905Y4395810D01*
X12190286Y4824381D02*
X12237905Y4872000D01*
X12333143Y4919619D01*
X12571239Y4919619D01*
X12666477Y4872000D01*
X12714096Y4824381D01*
X12761715Y4729143D01*
X12761715Y4633905D01*
X12714096Y4491048D01*
X12142667Y3919619D01*
X12761715Y3919619D01*
X62212381Y76531905D02*
X61212381Y76531905D01*
X61212381Y76912858D01*
X61260000Y77008096D01*
X61307619Y77055715D01*
X61402857Y77103334D01*
X61545714Y77103334D01*
X61640952Y77055715D01*
X61688571Y77008096D01*
X61736190Y76912858D01*
X61736190Y76531905D01*
X62212381Y78055715D02*
X62212381Y77484286D01*
X62212381Y77770000D02*
X61212381Y77770000D01*
X61355238Y77674762D01*
X61450476Y77579524D01*
X61498095Y77484286D01*
X47448810Y68562619D02*
X47448810Y69562619D01*
X48496429Y68657857D02*
X48448810Y68610238D01*
X48305953Y68562619D01*
X48210715Y68562619D01*
X48067857Y68610238D01*
X47972619Y68705476D01*
X47925000Y68800714D01*
X47877381Y68991190D01*
X47877381Y69134048D01*
X47925000Y69324524D01*
X47972619Y69419762D01*
X48067857Y69515000D01*
X48210715Y69562619D01*
X48305953Y69562619D01*
X48448810Y69515000D01*
X48496429Y69467381D01*
X49448810Y68562619D02*
X48877381Y68562619D01*
X49163095Y68562619D02*
X49163095Y69562619D01*
X49067857Y69419762D01*
X48972619Y69324524D01*
X48877381Y69276905D01*
X65387619Y3157619D02*
X65387619Y4157619D01*
X65816190Y4062381D02*
X65863809Y4110000D01*
X65959047Y4157619D01*
X66197143Y4157619D01*
X66292381Y4110000D01*
X66340000Y4062381D01*
X66387619Y3967143D01*
X66387619Y3871905D01*
X66340000Y3729048D01*
X65768571Y3157619D01*
X66387619Y3157619D01*
X67387619Y3252857D02*
X67340000Y3205238D01*
X67197143Y3157619D01*
X67101905Y3157619D01*
X66959047Y3205238D01*
X66863809Y3300476D01*
X66816190Y3395714D01*
X66768571Y3586190D01*
X66768571Y3729048D01*
X66816190Y3919524D01*
X66863809Y4014762D01*
X66959047Y4110000D01*
X67101905Y4157619D01*
X67197143Y4157619D01*
X67340000Y4110000D01*
X67387619Y4062381D01*
X67768571Y4062381D02*
X67816190Y4110000D01*
X67911428Y4157619D01*
X68149524Y4157619D01*
X68244762Y4110000D01*
X68292381Y4062381D01*
X68340000Y3967143D01*
X68340000Y3871905D01*
X68292381Y3729048D01*
X67720952Y3157619D01*
X68340000Y3157619D01*
X61577619Y17127619D02*
X61577619Y18127619D01*
X62006190Y18032381D02*
X62053809Y18080000D01*
X62149047Y18127619D01*
X62387143Y18127619D01*
X62482381Y18080000D01*
X62530000Y18032381D01*
X62577619Y17937143D01*
X62577619Y17841905D01*
X62530000Y17699048D01*
X61958571Y17127619D01*
X62577619Y17127619D01*
X63577619Y17222857D02*
X63530000Y17175238D01*
X63387143Y17127619D01*
X63291905Y17127619D01*
X63149047Y17175238D01*
X63053809Y17270476D01*
X63006190Y17365714D01*
X62958571Y17556190D01*
X62958571Y17699048D01*
X63006190Y17889524D01*
X63053809Y17984762D01*
X63149047Y18080000D01*
X63291905Y18127619D01*
X63387143Y18127619D01*
X63530000Y18080000D01*
X63577619Y18032381D01*
X64530000Y17127619D02*
X63958571Y17127619D01*
X64244285Y17127619D02*
X64244285Y18127619D01*
X64149047Y17984762D01*
X64053809Y17889524D01*
X63958571Y17841905D01*
X3451666Y76182619D02*
X3451666Y77182619D01*
X3689761Y77182619D01*
X3832619Y77135000D01*
X3927857Y77039762D01*
X3975476Y76944524D01*
X4023095Y76754048D01*
X4023095Y76611190D01*
X3975476Y76420714D01*
X3927857Y76325476D01*
X3832619Y76230238D01*
X3689761Y76182619D01*
X3451666Y76182619D01*
X4785000Y76706429D02*
X4927857Y76658810D01*
X4975476Y76611190D01*
X5023095Y76515952D01*
X5023095Y76373095D01*
X4975476Y76277857D01*
X4927857Y76230238D01*
X4832619Y76182619D01*
X4451666Y76182619D01*
X4451666Y77182619D01*
X4785000Y77182619D01*
X4880238Y77135000D01*
X4927857Y77087381D01*
X4975476Y76992143D01*
X4975476Y76896905D01*
X4927857Y76801667D01*
X4880238Y76754048D01*
X4785000Y76706429D01*
X4451666Y76706429D01*
X5927857Y76182619D02*
X5451666Y76182619D01*
X5451666Y77182619D01*
X6023095Y76087381D02*
X6785000Y76087381D01*
X6880238Y77182619D02*
X7451667Y77182619D01*
X7165952Y76182619D02*
X7165952Y77182619D01*
X8356429Y76182619D02*
X8023095Y76658810D01*
X7785000Y76182619D02*
X7785000Y77182619D01*
X8165953Y77182619D01*
X8261191Y77135000D01*
X8308810Y77087381D01*
X8356429Y76992143D01*
X8356429Y76849286D01*
X8308810Y76754048D01*
X8261191Y76706429D01*
X8165953Y76658810D01*
X7785000Y76658810D01*
X8737381Y76468333D02*
X9213572Y76468333D01*
X8642143Y76182619D02*
X8975476Y77182619D01*
X9308810Y76182619D01*
X10213572Y76277857D02*
X10165953Y76230238D01*
X10023096Y76182619D01*
X9927858Y76182619D01*
X9785000Y76230238D01*
X9689762Y76325476D01*
X9642143Y76420714D01*
X9594524Y76611190D01*
X9594524Y76754048D01*
X9642143Y76944524D01*
X9689762Y77039762D01*
X9785000Y77135000D01*
X9927858Y77182619D01*
X10023096Y77182619D01*
X10165953Y77135000D01*
X10213572Y77087381D01*
X10642143Y76182619D02*
X10642143Y77182619D01*
X11213572Y76182619D02*
X10785000Y76754048D01*
X11213572Y77182619D02*
X10642143Y76611190D01*
X12165953Y76182619D02*
X11594524Y76182619D01*
X11880238Y76182619D02*
X11880238Y77182619D01*
X11785000Y77039762D01*
X11689762Y76944524D01*
X11594524Y76896905D01*
X14460381Y65609905D02*
X13460381Y65609905D01*
X13460381Y65848000D01*
X13508000Y65990858D01*
X13603238Y66086096D01*
X13698476Y66133715D01*
X13888952Y66181334D01*
X14031810Y66181334D01*
X14222286Y66133715D01*
X14317524Y66086096D01*
X14412762Y65990858D01*
X14460381Y65848000D01*
X14460381Y65609905D01*
X13555619Y66562286D02*
X13508000Y66609905D01*
X13460381Y66705143D01*
X13460381Y66943239D01*
X13508000Y67038477D01*
X13555619Y67086096D01*
X13650857Y67133715D01*
X13746095Y67133715D01*
X13888952Y67086096D01*
X14460381Y66514667D01*
X14460381Y67133715D01*
X12847381Y65363095D02*
X11847381Y65363095D01*
X12847381Y65934524D02*
X12275952Y65505952D01*
X11847381Y65934524D02*
X12418810Y65363095D01*
X36193334Y45162857D02*
X36145715Y45115238D01*
X36002858Y45067619D01*
X35907620Y45067619D01*
X35764762Y45115238D01*
X35669524Y45210476D01*
X35621905Y45305714D01*
X35574286Y45496190D01*
X35574286Y45639048D01*
X35621905Y45829524D01*
X35669524Y45924762D01*
X35764762Y46020000D01*
X35907620Y46067619D01*
X36002858Y46067619D01*
X36145715Y46020000D01*
X36193334Y45972381D01*
X36764762Y45639048D02*
X36669524Y45686667D01*
X36621905Y45734286D01*
X36574286Y45829524D01*
X36574286Y45877143D01*
X36621905Y45972381D01*
X36669524Y46020000D01*
X36764762Y46067619D01*
X36955239Y46067619D01*
X37050477Y46020000D01*
X37098096Y45972381D01*
X37145715Y45877143D01*
X37145715Y45829524D01*
X37098096Y45734286D01*
X37050477Y45686667D01*
X36955239Y45639048D01*
X36764762Y45639048D01*
X36669524Y45591429D01*
X36621905Y45543810D01*
X36574286Y45448571D01*
X36574286Y45258095D01*
X36621905Y45162857D01*
X36669524Y45115238D01*
X36764762Y45067619D01*
X36955239Y45067619D01*
X37050477Y45115238D01*
X37098096Y45162857D01*
X37145715Y45258095D01*
X37145715Y45448571D01*
X37098096Y45543810D01*
X37050477Y45591429D01*
X36955239Y45639048D01*
X28573334Y35002857D02*
X28525715Y34955238D01*
X28382858Y34907619D01*
X28287620Y34907619D01*
X28144762Y34955238D01*
X28049524Y35050476D01*
X28001905Y35145714D01*
X27954286Y35336190D01*
X27954286Y35479048D01*
X28001905Y35669524D01*
X28049524Y35764762D01*
X28144762Y35860000D01*
X28287620Y35907619D01*
X28382858Y35907619D01*
X28525715Y35860000D01*
X28573334Y35812381D01*
X28906667Y35907619D02*
X29573334Y35907619D01*
X29144762Y34907619D01*
X28573334Y37542857D02*
X28525715Y37495238D01*
X28382858Y37447619D01*
X28287620Y37447619D01*
X28144762Y37495238D01*
X28049524Y37590476D01*
X28001905Y37685714D01*
X27954286Y37876190D01*
X27954286Y38019048D01*
X28001905Y38209524D01*
X28049524Y38304762D01*
X28144762Y38400000D01*
X28287620Y38447619D01*
X28382858Y38447619D01*
X28525715Y38400000D01*
X28573334Y38352381D01*
X29430477Y38447619D02*
X29240000Y38447619D01*
X29144762Y38400000D01*
X29097143Y38352381D01*
X29001905Y38209524D01*
X28954286Y38019048D01*
X28954286Y37638095D01*
X29001905Y37542857D01*
X29049524Y37495238D01*
X29144762Y37447619D01*
X29335239Y37447619D01*
X29430477Y37495238D01*
X29478096Y37542857D01*
X29525715Y37638095D01*
X29525715Y37876190D01*
X29478096Y37971429D01*
X29430477Y38019048D01*
X29335239Y38066667D01*
X29144762Y38066667D01*
X29049524Y38019048D01*
X29001905Y37971429D01*
X28954286Y37876190D01*
X11408334Y28642857D02*
X11360715Y28595238D01*
X11217858Y28547619D01*
X11122620Y28547619D01*
X10979762Y28595238D01*
X10884524Y28690476D01*
X10836905Y28785714D01*
X10789286Y28976190D01*
X10789286Y29119048D01*
X10836905Y29309524D01*
X10884524Y29404762D01*
X10979762Y29500000D01*
X11122620Y29547619D01*
X11217858Y29547619D01*
X11360715Y29500000D01*
X11408334Y29452381D01*
X12313096Y29547619D02*
X11836905Y29547619D01*
X11789286Y29071429D01*
X11836905Y29119048D01*
X11932143Y29166667D01*
X12170239Y29166667D01*
X12265477Y29119048D01*
X12313096Y29071429D01*
X12360715Y28976190D01*
X12360715Y28738095D01*
X12313096Y28642857D01*
X12265477Y28595238D01*
X12170239Y28547619D01*
X11932143Y28547619D01*
X11836905Y28595238D01*
X11789286Y28642857D01*
X18897143Y23803334D02*
X18944762Y23755715D01*
X18992381Y23612858D01*
X18992381Y23517620D01*
X18944762Y23374762D01*
X18849524Y23279524D01*
X18754286Y23231905D01*
X18563810Y23184286D01*
X18420952Y23184286D01*
X18230476Y23231905D01*
X18135238Y23279524D01*
X18040000Y23374762D01*
X17992381Y23517620D01*
X17992381Y23612858D01*
X18040000Y23755715D01*
X18087619Y23803334D01*
X18325714Y24660477D02*
X18992381Y24660477D01*
X17944762Y24422381D02*
X18659048Y24184286D01*
X18659048Y24803334D01*
X2665334Y19762857D02*
X2617715Y19715238D01*
X2474858Y19667619D01*
X2379620Y19667619D01*
X2236762Y19715238D01*
X2141524Y19810476D01*
X2093905Y19905714D01*
X2046286Y20096190D01*
X2046286Y20239048D01*
X2093905Y20429524D01*
X2141524Y20524762D01*
X2236762Y20620000D01*
X2379620Y20667619D01*
X2474858Y20667619D01*
X2617715Y20620000D01*
X2665334Y20572381D01*
X2998667Y20667619D02*
X3617715Y20667619D01*
X3284381Y20286667D01*
X3427239Y20286667D01*
X3522477Y20239048D01*
X3570096Y20191429D01*
X3617715Y20096190D01*
X3617715Y19858095D01*
X3570096Y19762857D01*
X3522477Y19715238D01*
X3427239Y19667619D01*
X3141524Y19667619D01*
X3046286Y19715238D01*
X2998667Y19762857D01*
X12738334Y26787857D02*
X12690715Y26740238D01*
X12547858Y26692619D01*
X12452620Y26692619D01*
X12309762Y26740238D01*
X12214524Y26835476D01*
X12166905Y26930714D01*
X12119286Y27121190D01*
X12119286Y27264048D01*
X12166905Y27454524D01*
X12214524Y27549762D01*
X12309762Y27645000D01*
X12452620Y27692619D01*
X12547858Y27692619D01*
X12690715Y27645000D01*
X12738334Y27597381D01*
X13119286Y27597381D02*
X13166905Y27645000D01*
X13262143Y27692619D01*
X13500239Y27692619D01*
X13595477Y27645000D01*
X13643096Y27597381D01*
X13690715Y27502143D01*
X13690715Y27406905D01*
X13643096Y27264048D01*
X13071667Y26692619D01*
X13690715Y26692619D01*
X19429334Y36526857D02*
X19381715Y36479238D01*
X19238858Y36431619D01*
X19143620Y36431619D01*
X19000762Y36479238D01*
X18905524Y36574476D01*
X18857905Y36669714D01*
X18810286Y36860190D01*
X18810286Y37003048D01*
X18857905Y37193524D01*
X18905524Y37288762D01*
X19000762Y37384000D01*
X19143620Y37431619D01*
X19238858Y37431619D01*
X19381715Y37384000D01*
X19429334Y37336381D01*
X20381715Y36431619D02*
X19810286Y36431619D01*
X20096000Y36431619D02*
X20096000Y37431619D01*
X20000762Y37288762D01*
X19905524Y37193524D01*
X19810286Y37145905D01*
X63705000Y81897619D02*
X63133571Y81897619D01*
X63419285Y81897619D02*
X63419285Y82897619D01*
X63324047Y82754762D01*
X63228809Y82659524D01*
X63133571Y82611905D01*
X63990714Y82897619D02*
X64562143Y82897619D01*
X64276428Y81897619D02*
X64276428Y82897619D01*
X65466905Y81897619D02*
X65133571Y82373810D01*
X64895476Y81897619D02*
X64895476Y82897619D01*
X65276429Y82897619D01*
X65371667Y82850000D01*
X65419286Y82802381D01*
X65466905Y82707143D01*
X65466905Y82564286D01*
X65419286Y82469048D01*
X65371667Y82421429D01*
X65276429Y82373810D01*
X64895476Y82373810D01*
X65847857Y82183333D02*
X66324048Y82183333D01*
X65752619Y81897619D02*
X66085952Y82897619D01*
X66419286Y81897619D01*
X67324048Y81992857D02*
X67276429Y81945238D01*
X67133572Y81897619D01*
X67038334Y81897619D01*
X66895476Y81945238D01*
X66800238Y82040476D01*
X66752619Y82135714D01*
X66705000Y82326190D01*
X66705000Y82469048D01*
X66752619Y82659524D01*
X66800238Y82754762D01*
X66895476Y82850000D01*
X67038334Y82897619D01*
X67133572Y82897619D01*
X67276429Y82850000D01*
X67324048Y82802381D01*
X67752619Y81897619D02*
X67752619Y82897619D01*
X68324048Y81897619D02*
X67895476Y82469048D01*
X68324048Y82897619D02*
X67752619Y82326190D01*
X69276429Y81897619D02*
X68705000Y81897619D01*
X68990714Y81897619D02*
X68990714Y82897619D01*
X68895476Y82754762D01*
X68800238Y82659524D01*
X68705000Y82611905D01*
X6856666Y82897619D02*
X6951905Y82897619D01*
X7047143Y82850000D01*
X7094762Y82802381D01*
X7142381Y82707143D01*
X7190000Y82516667D01*
X7190000Y82278571D01*
X7142381Y82088095D01*
X7094762Y81992857D01*
X7047143Y81945238D01*
X6951905Y81897619D01*
X6856666Y81897619D01*
X6761428Y81945238D01*
X6713809Y81992857D01*
X6666190Y82088095D01*
X6618571Y82278571D01*
X6618571Y82516667D01*
X6666190Y82707143D01*
X6713809Y82802381D01*
X6761428Y82850000D01*
X6856666Y82897619D01*
X7475714Y82897619D02*
X8047143Y82897619D01*
X7761428Y81897619D02*
X7761428Y82897619D01*
X8951905Y81897619D02*
X8618571Y82373810D01*
X8380476Y81897619D02*
X8380476Y82897619D01*
X8761429Y82897619D01*
X8856667Y82850000D01*
X8904286Y82802381D01*
X8951905Y82707143D01*
X8951905Y82564286D01*
X8904286Y82469048D01*
X8856667Y82421429D01*
X8761429Y82373810D01*
X8380476Y82373810D01*
X9332857Y82183333D02*
X9809048Y82183333D01*
X9237619Y81897619D02*
X9570952Y82897619D01*
X9904286Y81897619D01*
X10809048Y81992857D02*
X10761429Y81945238D01*
X10618572Y81897619D01*
X10523334Y81897619D01*
X10380476Y81945238D01*
X10285238Y82040476D01*
X10237619Y82135714D01*
X10190000Y82326190D01*
X10190000Y82469048D01*
X10237619Y82659524D01*
X10285238Y82754762D01*
X10380476Y82850000D01*
X10523334Y82897619D01*
X10618572Y82897619D01*
X10761429Y82850000D01*
X10809048Y82802381D01*
X11237619Y81897619D02*
X11237619Y82897619D01*
X11809048Y81897619D02*
X11380476Y82469048D01*
X11809048Y82897619D02*
X11237619Y82326190D01*
X12761429Y81897619D02*
X12190000Y81897619D01*
X12475714Y81897619D02*
X12475714Y82897619D01*
X12380476Y82754762D01*
X12285238Y82659524D01*
X12190000Y82611905D01*
%LPC*%
D14*
X25565000Y41710000D03*
D15*
X25565000Y44250000D03*
X28105000Y41710000D03*
X28105000Y44250000D03*
X30645000Y41710000D03*
X30645000Y44250000D03*
D16*
X20485000Y42982540D03*
D17*
X10325000Y42982540D03*
D18*
X36360000Y37900000D03*
X36360000Y32820000D03*
D19*
X4000000Y4000000D03*
X4000000Y83000000D03*
X76000000Y83000000D03*
X76000000Y4000000D03*
X4000000Y69000000D03*
X76000000Y70000000D03*
D16*
X10960000Y63259360D03*
X10960000Y60760000D03*
X30604360Y31550000D03*
X28105000Y31550000D03*
X30604360Y11230000D03*
X28105000Y11230000D03*
X34495640Y11865000D03*
X36995000Y11865000D03*
D20*
X6515000Y9960000D03*
X9055000Y9960000D03*
X11595000Y9960000D03*
X14135000Y9960000D03*
X16675000Y9960000D03*
X19215000Y9960000D03*
X21755000Y9960000D03*
X24295000Y9960000D03*
X24295000Y17580000D03*
X21755000Y17580000D03*
X19215000Y17580000D03*
X16675000Y17580000D03*
X14135000Y17580000D03*
X11595000Y17580000D03*
X9055000Y17580000D03*
X6515000Y17580000D03*
D21*
X5245000Y28375000D03*
X5245000Y30915000D03*
X5245000Y25835000D03*
D20*
X44615000Y10595000D03*
X44615000Y8055000D03*
X44615000Y5515000D03*
X44615000Y2975000D03*
X52235000Y2975000D03*
X52235000Y5515000D03*
X52235000Y8055000D03*
X52235000Y10595000D03*
X31915000Y1705000D03*
X34455000Y1705000D03*
X36995000Y1705000D03*
X39535000Y1705000D03*
X39535000Y9325000D03*
X36995000Y9325000D03*
X34455000Y9325000D03*
X31915000Y9325000D03*
D16*
X38265000Y15675000D03*
X28105000Y15675000D03*
X38265000Y18215000D03*
X28105000Y18215000D03*
X38265000Y23295000D03*
X28105000Y23295000D03*
X38265000Y25835000D03*
X28105000Y25835000D03*
X38265000Y20755000D03*
X28105000Y20755000D03*
X38265000Y28375000D03*
X28105000Y28375000D03*
X59220000Y37900000D03*
X69380000Y37900000D03*
X59220000Y35360000D03*
X69380000Y35360000D03*
X59220000Y32820000D03*
X69380000Y32820000D03*
X59220000Y30280000D03*
X69380000Y30280000D03*
X59220000Y27740000D03*
X69380000Y27740000D03*
X59220000Y25200000D03*
X69380000Y25200000D03*
X59220000Y22660000D03*
X69380000Y22660000D03*
X59220000Y20120000D03*
X69380000Y20120000D03*
X36360000Y50600000D03*
X26200000Y50600000D03*
X36360000Y53140000D03*
X26200000Y53140000D03*
X36360000Y55680000D03*
X26200000Y55680000D03*
X36360000Y58220000D03*
X26200000Y58220000D03*
X36360000Y60760000D03*
X26200000Y60760000D03*
X36360000Y63300000D03*
X26200000Y63300000D03*
X36360000Y65840000D03*
X26200000Y65840000D03*
X36360000Y68380000D03*
X26200000Y68380000D03*
X59220000Y48060000D03*
X69380000Y48060000D03*
X59220000Y50600000D03*
X69380000Y50600000D03*
X59220000Y53140000D03*
X69380000Y53140000D03*
X59220000Y55680000D03*
X69380000Y55680000D03*
X59220000Y58220000D03*
X69380000Y58220000D03*
X59220000Y60760000D03*
X69380000Y60760000D03*
X59220000Y63300000D03*
X69380000Y63300000D03*
X59220000Y65840000D03*
X69380000Y65840000D03*
X61125000Y44885000D03*
X71285000Y44885000D03*
X61125000Y41075000D03*
X71285000Y41075000D03*
X36360000Y48060000D03*
X26200000Y48060000D03*
X71920000Y6785000D03*
X71920000Y16945000D03*
X75095000Y9960000D03*
X75095000Y20120000D03*
X59220000Y4880000D03*
X59220000Y15040000D03*
X55410000Y12500000D03*
X55410000Y2340000D03*
D22*
X6515000Y40440000D03*
D23*
X6515000Y42980000D03*
X6515000Y45520000D03*
D24*
X7785000Y53775000D03*
D25*
X13881000Y53775000D03*
D24*
X10071000Y48695000D03*
D14*
X19215000Y31550000D03*
D15*
X21755000Y31550000D03*
X19215000Y29010000D03*
X21755000Y29010000D03*
X19215000Y26470000D03*
X21755000Y26470000D03*
X19215000Y23930000D03*
X21755000Y23930000D03*
X19215000Y21390000D03*
X21755000Y21390000D03*
D14*
X77000000Y24565000D03*
D15*
X74460000Y24565000D03*
X77000000Y27105000D03*
X74460000Y27105000D03*
X77000000Y29645000D03*
X74460000Y29645000D03*
X77000000Y32185000D03*
X74460000Y32185000D03*
X77000000Y34725000D03*
X74460000Y34725000D03*
D14*
X19215000Y68380000D03*
D15*
X21755000Y68380000D03*
X19215000Y65840000D03*
X21755000Y65840000D03*
X19215000Y63300000D03*
X21755000Y63300000D03*
X19215000Y60760000D03*
X21755000Y60760000D03*
X19215000Y58220000D03*
X21755000Y58220000D03*
D14*
X74460000Y63300000D03*
D15*
X77000000Y63300000D03*
X74460000Y60760000D03*
X77000000Y60760000D03*
X74460000Y58220000D03*
X77000000Y58220000D03*
X74460000Y55680000D03*
X77000000Y55680000D03*
X74460000Y53140000D03*
X77000000Y53140000D03*
D14*
X77000000Y41710000D03*
D15*
X74460000Y41710000D03*
X77000000Y44250000D03*
X74460000Y44250000D03*
X77000000Y46790000D03*
X74460000Y46790000D03*
D14*
X14770000Y4245000D03*
D15*
X14770000Y6785000D03*
X17310000Y4245000D03*
X17310000Y6785000D03*
X19850000Y4245000D03*
X19850000Y6785000D03*
X22390000Y4245000D03*
X22390000Y6785000D03*
X24930000Y4245000D03*
X24930000Y6785000D03*
D14*
X49060000Y77270000D03*
D15*
X49060000Y79810000D03*
X51600000Y77270000D03*
X51600000Y79810000D03*
X54140000Y77270000D03*
X54140000Y79810000D03*
X56680000Y77270000D03*
X56680000Y79810000D03*
X59220000Y77270000D03*
X59220000Y79810000D03*
D20*
X41440000Y65840000D03*
X41440000Y63300000D03*
X41440000Y60760000D03*
X41440000Y58220000D03*
X41440000Y55680000D03*
X41440000Y53140000D03*
X41440000Y50600000D03*
X41440000Y48060000D03*
X41440000Y45520000D03*
X41440000Y42980000D03*
X41440000Y40440000D03*
X41440000Y37900000D03*
X41440000Y35360000D03*
X41440000Y32820000D03*
X41440000Y30280000D03*
X41440000Y27740000D03*
X41440000Y25200000D03*
X41440000Y22660000D03*
X41440000Y20120000D03*
X41440000Y17580000D03*
X56680000Y17580000D03*
X56680000Y20120000D03*
X56680000Y22660000D03*
X56680000Y25200000D03*
X56680000Y27740000D03*
X56680000Y30280000D03*
X56680000Y32820000D03*
X56680000Y35360000D03*
X56680000Y37900000D03*
X56680000Y40440000D03*
X56680000Y42980000D03*
X56680000Y45520000D03*
X56680000Y48060000D03*
X56680000Y50600000D03*
X56680000Y53140000D03*
X56680000Y55680000D03*
X56680000Y58220000D03*
X56680000Y60760000D03*
X56680000Y63300000D03*
X56680000Y65840000D03*
D14*
X63030000Y6150000D03*
D15*
X63030000Y8690000D03*
X65570000Y6150000D03*
X65570000Y8690000D03*
X68110000Y6150000D03*
X68110000Y8690000D03*
D14*
X63030000Y12500000D03*
D15*
X63030000Y15040000D03*
X65570000Y12500000D03*
X65570000Y15040000D03*
X68110000Y12500000D03*
X68110000Y15040000D03*
D26*
X15659000Y79302000D03*
X40678000Y79302000D03*
D27*
X33566000Y80699000D03*
D28*
X30899000Y80699000D03*
X28105000Y80699000D03*
X25438000Y80699000D03*
X22644000Y80699000D03*
X32296000Y77905000D03*
X29502000Y77905000D03*
X26835000Y77905000D03*
X24041000Y77905000D03*
D29*
X14135000Y63935000D03*
D30*
X14135000Y61395000D03*
D31*
X33820000Y42980000D03*
D32*
X38820000Y42980000D03*
D31*
X31280000Y35360000D03*
D32*
X26280000Y35360000D03*
D31*
X31280000Y37900000D03*
D32*
X26280000Y37900000D03*
D31*
X10325000Y25200000D03*
D32*
X12825000Y25200000D03*
D31*
X16040000Y26470000D03*
D32*
X16040000Y21470000D03*
D31*
X10325000Y20120000D03*
D32*
X5325000Y20120000D03*
D31*
X15405000Y29645000D03*
D32*
X10405000Y29645000D03*
X14730000Y36630000D03*
D31*
X12230000Y36630000D03*
D26*
X44234000Y86922000D03*
X69253000Y86922000D03*
D27*
X62141000Y88319000D03*
D28*
X59474000Y88319000D03*
X56680000Y88319000D03*
X54013000Y88319000D03*
X51219000Y88319000D03*
X60871000Y85525000D03*
X58077000Y85525000D03*
X55410000Y85525000D03*
X52616000Y85525000D03*
D26*
X11214000Y86922000D03*
X36233000Y86922000D03*
D27*
X29121000Y88319000D03*
D28*
X26454000Y88319000D03*
X23660000Y88319000D03*
X20993000Y88319000D03*
X18199000Y88319000D03*
X27851000Y85525000D03*
X25057000Y85525000D03*
X22390000Y85525000D03*
X19596000Y85525000D03*
M02*
