M48
;DRILL file {KiCad 4.0.1-stable} date Dienstag, 02. Februar 2016 08:11:21
;FORMAT={-:-/ absolute / metric / decimal}
FMAT,2
METRIC,TZ
T1C0.400
T2C0.800
T3C1.000
T4C3.048
%
G90
G05
M71
T1
X14.135Y13.135
X23.66Y25.2
X23.66Y22.66
X25.565Y15.675
X29.375Y76.
X41.44Y13.135
X43.345Y12.5
X44.615Y29.01
X44.615Y26.47
X45.25Y82.35
X45.885Y18.85
X48.425Y10.595
X49.06Y18.85
X49.06Y17.58
X50.965Y18.85
X50.965Y17.58
X61.76Y78.54
X63.665Y18.85
X65.57Y82.35
X66.205Y16.945
X74.46Y39.805
T2
X5.325Y20.12
X6.515Y17.58
X6.515Y9.96
X9.055Y17.58
X9.055Y9.96
X10.325Y25.2
X10.325Y20.12
X10.405Y29.645
X11.595Y17.58
X11.595Y9.96
X12.23Y36.63
X12.825Y25.2
X14.135Y17.58
X14.135Y9.96
X14.73Y36.63
X15.405Y29.645
X16.04Y26.47
X16.04Y21.47
X16.675Y17.58
X16.675Y9.96
X19.215Y17.58
X19.215Y9.96
X21.755Y17.58
X21.755Y9.96
X24.295Y17.58
X24.295Y9.96
X26.28Y37.9
X26.28Y35.36
X31.28Y37.9
X31.28Y35.36
X31.915Y9.325
X31.915Y1.705
X33.82Y42.98
X34.455Y9.325
X34.455Y1.705
X36.36Y37.9
X36.36Y32.82
X36.995Y9.325
X36.995Y1.705
X38.82Y42.98
X39.535Y9.325
X39.535Y1.705
X41.44Y65.84
X41.44Y63.3
X41.44Y60.76
X41.44Y58.22
X41.44Y55.68
X41.44Y53.14
X41.44Y50.6
X41.44Y48.06
X41.44Y45.52
X41.44Y42.98
X41.44Y40.44
X41.44Y37.9
X41.44Y35.36
X41.44Y32.82
X41.44Y30.28
X41.44Y27.74
X41.44Y25.2
X41.44Y22.66
X41.44Y20.12
X41.44Y17.58
X44.615Y10.595
X44.615Y8.055
X44.615Y5.515
X44.615Y2.975
X52.235Y10.595
X52.235Y8.055
X52.235Y5.515
X52.235Y2.975
X56.68Y65.84
X56.68Y63.3
X56.68Y60.76
X56.68Y58.22
X56.68Y55.68
X56.68Y53.14
X56.68Y50.6
X56.68Y48.06
X56.68Y45.52
X56.68Y42.98
X56.68Y40.44
X56.68Y37.9
X56.68Y35.36
X56.68Y32.82
X56.68Y30.28
X56.68Y27.74
X56.68Y25.2
X56.68Y22.66
X56.68Y20.12
X56.68Y17.58
T3
X5.245Y30.915
X5.245Y28.375
X5.245Y25.835
X6.515Y45.52
X6.515Y42.98
X6.515Y40.44
X10.325Y42.983
X10.96Y63.259
X10.96Y60.76
X14.135Y63.935
X14.135Y61.395
X14.77Y6.785
X14.77Y4.245
X17.31Y6.785
X17.31Y4.245
X18.199Y88.319
X19.215Y68.38
X19.215Y65.84
X19.215Y63.3
X19.215Y60.76
X19.215Y58.22
X19.215Y31.55
X19.215Y29.01
X19.215Y26.47
X19.215Y23.93
X19.215Y21.39
X19.596Y85.525
X19.85Y6.785
X19.85Y4.245
X20.485Y42.983
X20.993Y88.319
X21.755Y68.38
X21.755Y65.84
X21.755Y63.3
X21.755Y60.76
X21.755Y58.22
X21.755Y31.55
X21.755Y29.01
X21.755Y26.47
X21.755Y23.93
X21.755Y21.39
X22.39Y85.525
X22.39Y6.785
X22.39Y4.245
X22.644Y80.699
X23.66Y88.319
X24.041Y77.905
X24.93Y6.785
X24.93Y4.245
X25.057Y85.525
X25.438Y80.699
X25.565Y44.25
X25.565Y41.71
X26.2Y68.38
X26.2Y65.84
X26.2Y63.3
X26.2Y60.76
X26.2Y58.22
X26.2Y55.68
X26.2Y53.14
X26.2Y50.6
X26.2Y48.06
X26.454Y88.319
X26.835Y77.905
X27.851Y85.525
X28.105Y80.699
X28.105Y44.25
X28.105Y41.71
X28.105Y31.55
X28.105Y28.375
X28.105Y25.835
X28.105Y23.295
X28.105Y20.755
X28.105Y18.215
X28.105Y15.675
X28.105Y11.23
X29.121Y88.319
X29.502Y77.905
X30.604Y31.55
X30.604Y11.23
X30.645Y44.25
X30.645Y41.71
X30.899Y80.699
X32.296Y77.905
X33.566Y80.699
X34.496Y11.865
X36.36Y68.38
X36.36Y65.84
X36.36Y63.3
X36.36Y60.76
X36.36Y58.22
X36.36Y55.68
X36.36Y53.14
X36.36Y50.6
X36.36Y48.06
X36.995Y11.865
X38.265Y28.375
X38.265Y25.835
X38.265Y23.295
X38.265Y20.755
X38.265Y18.215
X38.265Y15.675
X49.06Y79.81
X49.06Y77.27
X51.219Y88.319
X51.6Y79.81
X51.6Y77.27
X52.616Y85.525
X54.013Y88.319
X54.14Y79.81
X54.14Y77.27
X55.41Y85.525
X55.41Y12.5
X55.41Y2.34
X56.68Y88.319
X56.68Y79.81
X56.68Y77.27
X58.077Y85.525
X59.22Y79.81
X59.22Y77.27
X59.22Y65.84
X59.22Y63.3
X59.22Y60.76
X59.22Y58.22
X59.22Y55.68
X59.22Y53.14
X59.22Y50.6
X59.22Y48.06
X59.22Y37.9
X59.22Y35.36
X59.22Y32.82
X59.22Y30.28
X59.22Y27.74
X59.22Y25.2
X59.22Y22.66
X59.22Y20.12
X59.22Y15.04
X59.22Y4.88
X59.474Y88.319
X60.871Y85.525
X61.125Y44.885
X61.125Y41.075
X62.141Y88.319
X63.03Y15.04
X63.03Y12.5
X63.03Y8.69
X63.03Y6.15
X65.57Y15.04
X65.57Y12.5
X65.57Y8.69
X65.57Y6.15
X68.11Y15.04
X68.11Y12.5
X68.11Y8.69
X68.11Y6.15
X69.38Y65.84
X69.38Y63.3
X69.38Y60.76
X69.38Y58.22
X69.38Y55.68
X69.38Y53.14
X69.38Y50.6
X69.38Y48.06
X69.38Y37.9
X69.38Y35.36
X69.38Y32.82
X69.38Y30.28
X69.38Y27.74
X69.38Y25.2
X69.38Y22.66
X69.38Y20.12
X71.285Y44.885
X71.285Y41.075
X71.92Y16.945
X71.92Y6.785
X74.46Y63.3
X74.46Y60.76
X74.46Y58.22
X74.46Y55.68
X74.46Y53.14
X74.46Y46.79
X74.46Y44.25
X74.46Y41.71
X74.46Y34.725
X74.46Y32.185
X74.46Y29.645
X74.46Y27.105
X74.46Y24.565
X75.095Y20.12
X75.095Y9.96
X77.Y63.3
X77.Y60.76
X77.Y58.22
X77.Y55.68
X77.Y53.14
X77.Y46.79
X77.Y44.25
X77.Y41.71
X77.Y34.725
X77.Y32.185
X77.Y29.645
X77.Y27.105
X77.Y24.565
T4
X4.Y83.
X4.Y69.
X4.Y4.
X11.214Y86.922
X15.659Y79.302
X36.233Y86.922
X40.678Y79.302
X44.234Y86.922
X69.253Y86.922
X76.Y83.
X76.Y70.
X76.Y4.
T3
X7.785Y54.545G85X7.785Y53.005
G05
X9.301Y48.695G85X10.841Y48.695
G05
X13.881Y54.545G85X13.881Y53.005
G05
T0
M30
